<?xml version="1.0" encoding="UTF-8" standalone="no"?>
<!DOCTYPE svg PUBLIC "-//W3C//DTD SVG 1.1//EN"
 "http://www.w3.org/Graphics/SVG/1.1/DTD/svg11.dtd">
<!-- Generated by graphviz version 2.30.1 (20131017.1317)
 -->
<!-- Title: Debuntu call graph Pages: 1 -->
<svg width="2160pt" height="522pt"
 viewBox="0.00 0.00 2160.00 522.00" xmlns="http://www.w3.org/2000/svg" xmlns:xlink="http://www.w3.org/1999/xlink">
<g id="graph0" class="graph" transform="scale(1 1) rotate(0) translate(4 518)">
<title>Debuntu call graph</title>
<polygon fill="white" stroke="white" points="-4,5 -4,-518 2157,-518 2157,5 -4,5"/>
<!-- database postgresql\ninstall 9.2 -->
<g id="node1" class="node"><title>database postgresql\ninstall 9.2</title>
<ellipse fill="none" stroke="black" cx="1884" cy="-388" rx="88.3424" ry="29.3315"/>
<text text-anchor="middle" x="1884" y="-390.8" font-family="Times,serif" font-size="14.00">database postgresql</text>
<text text-anchor="middle" x="1884" y="-374" font-family="Times,serif" font-size="14.00">install 9.2</text>
</g>
<!-- database postgresql\nadd pgdg apt\nrepository -->
<g id="node2" class="node"><title>database postgresql\nadd pgdg apt\nrepository</title>
<ellipse fill="none" stroke="black" cx="2064" cy="-280" rx="88.3424" ry="41.0911"/>
<text text-anchor="middle" x="2064" y="-291.2" font-family="Times,serif" font-size="14.00">database postgresql</text>
<text text-anchor="middle" x="2064" y="-274.4" font-family="Times,serif" font-size="14.00">add pgdg apt</text>
<text text-anchor="middle" x="2064" y="-257.6" font-family="Times,serif" font-size="14.00">repository</text>
</g>
<!-- database postgresql\ninstall 9.2&#45;&gt;database postgresql\nadd pgdg apt\nrepository -->
<g id="edge1" class="edge"><title>database postgresql\ninstall 9.2&#45;&gt;database postgresql\nadd pgdg apt\nrepository</title>
<path fill="none" stroke="black" d="M1926.2,-362.148C1948.6,-348.956 1976.57,-332.486 2001.44,-317.838"/>
<polygon fill="black" stroke="black" points="2003.26,-320.832 2010.1,-312.741 1999.71,-314.8 2003.26,-320.832"/>
</g>
<!-- invoke as user -->
<g id="node3" class="node"><title>invoke as user</title>
<ellipse fill="none" stroke="black" cx="902" cy="-280" rx="65.9227" ry="18"/>
<text text-anchor="middle" x="902" y="-274.4" font-family="Times,serif" font-size="14.00">invoke as user</text>
</g>
<!-- meta write functions\nfor sourcing -->
<g id="node4" class="node"><title>meta write functions\nfor sourcing</title>
<ellipse fill="none" stroke="black" cx="884" cy="-149" rx="92.527" ry="29.3315"/>
<text text-anchor="middle" x="884" y="-151.8" font-family="Times,serif" font-size="14.00">meta write functions</text>
<text text-anchor="middle" x="884" y="-135" font-family="Times,serif" font-size="14.00">for sourcing</text>
</g>
<!-- invoke as user&#45;&gt;meta write functions\nfor sourcing -->
<g id="edge2" class="edge"><title>invoke as user&#45;&gt;meta write functions\nfor sourcing</title>
<path fill="none" stroke="black" d="M899.61,-261.87C897.016,-243.279 892.789,-212.988 889.388,-188.612"/>
<polygon fill="black" stroke="black" points="892.836,-187.998 887.988,-178.578 885.903,-188.966 892.836,-187.998"/>
</g>
<!-- jvm open jdk\ninstall -->
<g id="node5" class="node"><title>jvm open jdk\ninstall</title>
<ellipse fill="none" stroke="black" cx="566" cy="-388" rx="63.3349" ry="29.3315"/>
<text text-anchor="middle" x="566" y="-390.8" font-family="Times,serif" font-size="14.00">jvm open jdk</text>
<text text-anchor="middle" x="566" y="-374" font-family="Times,serif" font-size="14.00">install</text>
</g>
<!-- system meta\nos&#45;name -->
<g id="node6" class="node"><title>system meta\nos&#45;name</title>
<ellipse fill="none" stroke="black" cx="518" cy="-280" rx="60.2889" ry="29.3315"/>
<text text-anchor="middle" x="518" y="-282.8" font-family="Times,serif" font-size="14.00">system meta</text>
<text text-anchor="middle" x="518" y="-266" font-family="Times,serif" font-size="14.00">os&#45;name</text>
</g>
<!-- jvm open jdk\ninstall&#45;&gt;system meta\nos&#45;name -->
<g id="edge3" class="edge"><title>jvm open jdk\ninstall&#45;&gt;system meta\nos&#45;name</title>
<path fill="none" stroke="black" d="M553.389,-359.15C547.756,-346.711 541.034,-331.867 534.969,-318.473"/>
<polygon fill="black" stroke="black" points="538.007,-316.698 530.694,-309.032 531.631,-319.586 538.007,-316.698"/>
</g>
<!-- ruby rbenv install\njruby 1.7.4 -->
<g id="node7" class="node"><title>ruby rbenv install\njruby 1.7.4</title>
<ellipse fill="none" stroke="black" cx="1362" cy="-149" rx="81.2202" ry="29.3315"/>
<text text-anchor="middle" x="1362" y="-151.8" font-family="Times,serif" font-size="14.00">ruby rbenv install</text>
<text text-anchor="middle" x="1362" y="-135" font-family="Times,serif" font-size="14.00">jruby 1.7.4</text>
</g>
<!-- ruby rbenv install\nruby -->
<g id="node8" class="node"><title>ruby rbenv install\nruby</title>
<ellipse fill="none" stroke="black" cx="1542" cy="-30" rx="81.2202" ry="29.3315"/>
<text text-anchor="middle" x="1542" y="-32.8" font-family="Times,serif" font-size="14.00">ruby rbenv install</text>
<text text-anchor="middle" x="1542" y="-16" font-family="Times,serif" font-size="14.00">ruby</text>
</g>
<!-- ruby rbenv install\njruby 1.7.4&#45;&gt;ruby rbenv install\nruby -->
<g id="edge4" class="edge"><title>ruby rbenv install\njruby 1.7.4&#45;&gt;ruby rbenv install\nruby</title>
<path fill="none" stroke="black" d="M1400.61,-122.901C1428.26,-104.933 1465.62,-80.6447 1495,-61.5498"/>
<polygon fill="black" stroke="black" points="1496.97,-64.4424 1503.45,-56.0579 1493.16,-58.5733 1496.97,-64.4424"/>
</g>
<!-- ruby rbenv install\nruby 1.9.3 -->
<g id="node9" class="node"><title>ruby rbenv install\nruby 1.9.3</title>
<ellipse fill="none" stroke="black" cx="1898" cy="-149" rx="81.2202" ry="29.3315"/>
<text text-anchor="middle" x="1898" y="-151.8" font-family="Times,serif" font-size="14.00">ruby rbenv install</text>
<text text-anchor="middle" x="1898" y="-135" font-family="Times,serif" font-size="14.00">ruby 1.9.3</text>
</g>
<!-- ruby rbenv install\nruby 1.9.3&#45;&gt;ruby rbenv install\nruby -->
<g id="edge5" class="edge"><title>ruby rbenv install\nruby 1.9.3&#45;&gt;ruby rbenv install\nruby</title>
<path fill="none" stroke="black" d="M1860.24,-122.97C1844.58,-113.459 1825.92,-103.194 1808,-96 1748.73,-72.2049 1678.42,-55.4837 1624.97,-44.9649"/>
<polygon fill="black" stroke="black" points="1625.34,-41.471 1614.85,-43.0082 1624.01,-48.3436 1625.34,-41.471"/>
</g>
<!-- ruby rbenv install\nruby 2.0.0 -->
<g id="node10" class="node"><title>ruby rbenv install\nruby 2.0.0</title>
<ellipse fill="none" stroke="black" cx="1542" cy="-149" rx="81.2202" ry="29.3315"/>
<text text-anchor="middle" x="1542" y="-151.8" font-family="Times,serif" font-size="14.00">ruby rbenv install</text>
<text text-anchor="middle" x="1542" y="-135" font-family="Times,serif" font-size="14.00">ruby 2.0.0</text>
</g>
<!-- ruby rbenv install\nruby 2.0.0&#45;&gt;ruby rbenv install\nruby -->
<g id="edge6" class="edge"><title>ruby rbenv install\nruby 2.0.0&#45;&gt;ruby rbenv install\nruby</title>
<path fill="none" stroke="black" d="M1542,-119.379C1542,-104.506 1542,-86.1109 1542,-69.9607"/>
<polygon fill="black" stroke="black" points="1545.5,-69.7314 1542,-59.7314 1538.5,-69.7315 1545.5,-69.7314"/>
</g>
<!-- ssh download\nand add to\nauthorized\nkeys -->
<g id="node11" class="node"><title>ssh download\nand add to\nauthorized\nkeys</title>
<ellipse fill="none" stroke="black" cx="1197" cy="-149" rx="65.2282" ry="53.3494"/>
<text text-anchor="middle" x="1197" y="-168.6" font-family="Times,serif" font-size="14.00">ssh download</text>
<text text-anchor="middle" x="1197" y="-151.8" font-family="Times,serif" font-size="14.00">and add to</text>
<text text-anchor="middle" x="1197" y="-135" font-family="Times,serif" font-size="14.00">authorized</text>
<text text-anchor="middle" x="1197" y="-118.2" font-family="Times,serif" font-size="14.00">keys</text>
</g>
<!-- ssh add to authorized\nkeys -->
<g id="node12" class="node"><title>ssh add to authorized\nkeys</title>
<ellipse fill="none" stroke="black" cx="1197" cy="-30" rx="95.247" ry="29.3315"/>
<text text-anchor="middle" x="1197" y="-32.8" font-family="Times,serif" font-size="14.00">ssh add to authorized</text>
<text text-anchor="middle" x="1197" y="-16" font-family="Times,serif" font-size="14.00">keys</text>
</g>
<!-- ssh download\nand add to\nauthorized\nkeys&#45;&gt;ssh add to authorized\nkeys -->
<g id="edge7" class="edge"><title>ssh download\nand add to\nauthorized\nkeys&#45;&gt;ssh add to authorized\nkeys</title>
<path fill="none" stroke="black" d="M1197,-95.6598C1197,-86.9325 1197,-78.0204 1197,-69.7119"/>
<polygon fill="black" stroke="black" points="1200.5,-69.5699 1197,-59.57 1193.5,-69.57 1200.5,-69.5699"/>
</g>
<!-- torquebox install\n3.0.0 -->
<g id="node13" class="node"><title>torquebox install\n3.0.0</title>
<ellipse fill="none" stroke="black" cx="326" cy="-484" rx="78.1885" ry="29.3315"/>
<text text-anchor="middle" x="326" y="-486.8" font-family="Times,serif" font-size="14.00">torquebox install</text>
<text text-anchor="middle" x="326" y="-470" font-family="Times,serif" font-size="14.00">3.0.0</text>
</g>
<!-- torquebox install\n3.0.0&#45;&gt;jvm open jdk\ninstall -->
<g id="edge8" class="edge"><title>torquebox install\n3.0.0&#45;&gt;jvm open jdk\ninstall</title>
<path fill="none" stroke="black" d="M379.436,-462.31C412.23,-449.586 455.071,-432.915 493,-418 498.366,-415.89 503.951,-413.686 509.536,-411.476"/>
<polygon fill="black" stroke="black" points="510.888,-414.705 518.896,-407.768 508.31,-408.197 510.888,-414.705"/>
</g>
<!-- torquebox setup\nenv loader -->
<g id="node14" class="node"><title>torquebox setup\nenv loader</title>
<ellipse fill="none" stroke="black" cx="242" cy="-388" rx="74.2377" ry="29.3315"/>
<text text-anchor="middle" x="242" y="-390.8" font-family="Times,serif" font-size="14.00">torquebox setup</text>
<text text-anchor="middle" x="242" y="-374" font-family="Times,serif" font-size="14.00">env loader</text>
</g>
<!-- torquebox install\n3.0.0&#45;&gt;torquebox setup\nenv loader -->
<g id="edge9" class="edge"><title>torquebox install\n3.0.0&#45;&gt;torquebox setup\nenv loader</title>
<path fill="none" stroke="black" d="M301.704,-455.811C292.736,-445.776 282.45,-434.266 272.971,-423.658"/>
<polygon fill="black" stroke="black" points="275.515,-421.252 266.242,-416.128 270.295,-425.916 275.515,-421.252"/>
</g>
<!-- torquebox setup\nlogrotate -->
<g id="node15" class="node"><title>torquebox setup\nlogrotate</title>
<ellipse fill="none" stroke="black" cx="410" cy="-388" rx="74.2377" ry="29.3315"/>
<text text-anchor="middle" x="410" y="-390.8" font-family="Times,serif" font-size="14.00">torquebox setup</text>
<text text-anchor="middle" x="410" y="-374" font-family="Times,serif" font-size="14.00">logrotate</text>
</g>
<!-- torquebox install\n3.0.0&#45;&gt;torquebox setup\nlogrotate -->
<g id="edge10" class="edge"><title>torquebox install\n3.0.0&#45;&gt;torquebox setup\nlogrotate</title>
<path fill="none" stroke="black" d="M350.296,-455.811C359.264,-445.776 369.55,-434.266 379.029,-423.658"/>
<polygon fill="black" stroke="black" points="381.705,-425.916 385.758,-416.128 376.485,-421.252 381.705,-425.916"/>
</g>
<!-- torquebox setup\nupstart -->
<g id="node16" class="node"><title>torquebox setup\nupstart</title>
<ellipse fill="none" stroke="black" cx="74" cy="-388" rx="74.2377" ry="29.3315"/>
<text text-anchor="middle" x="74" y="-390.8" font-family="Times,serif" font-size="14.00">torquebox setup</text>
<text text-anchor="middle" x="74" y="-374" font-family="Times,serif" font-size="14.00">upstart</text>
</g>
<!-- torquebox install\n3.0.0&#45;&gt;torquebox setup\nupstart -->
<g id="edge11" class="edge"><title>torquebox install\n3.0.0&#45;&gt;torquebox setup\nupstart</title>
<path fill="none" stroke="black" d="M271.63,-462.719C231.897,-447.898 177.933,-427.769 136.434,-412.289"/>
<polygon fill="black" stroke="black" points="137.569,-408.977 126.976,-408.761 135.122,-415.535 137.569,-408.977"/>
</g>
<!-- zhdk ci ruby\ninstall -->
<g id="node17" class="node"><title>zhdk ci ruby\ninstall</title>
<ellipse fill="none" stroke="black" cx="1629" cy="-280" rx="60.197" ry="29.3315"/>
<text text-anchor="middle" x="1629" y="-282.8" font-family="Times,serif" font-size="14.00">zhdk ci ruby</text>
<text text-anchor="middle" x="1629" y="-266" font-family="Times,serif" font-size="14.00">install</text>
</g>
<!-- ruby rbenv install -->
<g id="node18" class="node"><title>ruby rbenv install</title>
<ellipse fill="none" stroke="black" cx="1720" cy="-149" rx="79.2379" ry="18"/>
<text text-anchor="middle" x="1720" y="-143.4" font-family="Times,serif" font-size="14.00">ruby rbenv install</text>
</g>
<!-- zhdk ci ruby\ninstall&#45;&gt;ruby rbenv install -->
<g id="edge12" class="edge"><title>zhdk ci ruby\ninstall&#45;&gt;ruby rbenv install</title>
<path fill="none" stroke="black" d="M1648.08,-251.957C1664,-229.39 1686.52,-197.461 1702.1,-175.373"/>
<polygon fill="black" stroke="black" points="1705,-177.331 1707.91,-167.142 1699.28,-173.296 1705,-177.331"/>
</g>
<!-- zhdk ci ruby\ninstall&#45;&gt;ruby rbenv install\nruby 1.9.3 -->
<g id="edge13" class="edge"><title>zhdk ci ruby\ninstall&#45;&gt;ruby rbenv install\nruby 1.9.3</title>
<path fill="none" stroke="black" d="M1664.92,-256.011C1675.64,-249.69 1687.58,-243.162 1699,-238 1745.49,-216.991 1761.45,-222.871 1808,-202 1822.05,-195.702 1836.73,-187.827 1850.06,-180.125"/>
<polygon fill="black" stroke="black" points="1852.2,-182.926 1859.05,-174.842 1848.65,-176.891 1852.2,-182.926"/>
</g>
<!-- zhdk ci ruby\ngherkin setup\nragel lexer -->
<g id="node19" class="node"><title>zhdk ci ruby\ngherkin setup\nragel lexer</title>
<ellipse fill="none" stroke="black" cx="2062" cy="-149" rx="64.3877" ry="41.0911"/>
<text text-anchor="middle" x="2062" y="-160.2" font-family="Times,serif" font-size="14.00">zhdk ci ruby</text>
<text text-anchor="middle" x="2062" y="-143.4" font-family="Times,serif" font-size="14.00">gherkin setup</text>
<text text-anchor="middle" x="2062" y="-126.6" font-family="Times,serif" font-size="14.00">ragel lexer</text>
</g>
<!-- zhdk ci ruby\ninstall&#45;&gt;zhdk ci ruby\ngherkin setup\nragel lexer -->
<g id="edge14" class="edge"><title>zhdk ci ruby\ninstall&#45;&gt;zhdk ci ruby\ngherkin setup\nragel lexer</title>
<path fill="none" stroke="black" d="M1662.91,-255.417C1673.97,-248.767 1686.6,-242.206 1699,-238 1821.58,-196.438 1867.24,-248.593 1988,-202 1997.23,-198.439 2006.4,-193.482 2014.98,-188.031"/>
<polygon fill="black" stroke="black" points="2016.96,-190.912 2023.34,-182.448 2013.08,-185.09 2016.96,-190.912"/>
</g>
<!-- zhdk complete&#45;setup -->
<g id="node20" class="node"><title>zhdk complete&#45;setup</title>
<ellipse fill="none" stroke="black" cx="1231" cy="-484" rx="91.3236" ry="18"/>
<text text-anchor="middle" x="1231" y="-478.4" font-family="Times,serif" font-size="14.00">zhdk complete&#45;setup</text>
</g>
<!-- zhdk complete&#45;setup&#45;&gt;jvm open jdk\ninstall -->
<g id="edge15" class="edge"><title>zhdk complete&#45;setup&#45;&gt;jvm open jdk\ninstall</title>
<path fill="none" stroke="black" d="M1154.66,-473.999C1056.98,-462.257 882.627,-440.537 734,-418 701.136,-413.017 664.774,-406.824 634.309,-401.443"/>
<polygon fill="black" stroke="black" points="634.675,-397.954 624.217,-399.652 633.452,-404.846 634.675,-397.954"/>
</g>
<!-- zhdk domina&#45;ci&#45;executor\nsetup -->
<g id="node21" class="node"><title>zhdk domina&#45;ci&#45;executor\nsetup</title>
<ellipse fill="none" stroke="black" cx="854" cy="-388" rx="110.311" ry="29.3315"/>
<text text-anchor="middle" x="854" y="-390.8" font-family="Times,serif" font-size="14.00">zhdk domina&#45;ci&#45;executor</text>
<text text-anchor="middle" x="854" y="-374" font-family="Times,serif" font-size="14.00">setup</text>
</g>
<!-- zhdk complete&#45;setup&#45;&gt;zhdk domina&#45;ci&#45;executor\nsetup -->
<g id="edge16" class="edge"><title>zhdk complete&#45;setup&#45;&gt;zhdk domina&#45;ci&#45;executor\nsetup</title>
<path fill="none" stroke="black" d="M1176.58,-469.432C1115.43,-454.185 1015.24,-429.204 942.731,-411.124"/>
<polygon fill="black" stroke="black" points="943.239,-407.643 932.689,-408.62 941.545,-414.435 943.239,-407.643"/>
</g>
<!-- zhdk complete&#45;setup&#45;&gt;database postgresql\ninstall 9.2 -->
<g id="edge17" class="edge"><title>zhdk complete&#45;setup&#45;&gt;database postgresql\ninstall 9.2</title>
<path fill="none" stroke="black" d="M1302.24,-472.765C1391.3,-459.968 1548.42,-437.384 1683,-418 1719.21,-412.784 1759.08,-407.033 1793.71,-402.036"/>
<polygon fill="black" stroke="black" points="1794.4,-405.473 1803.8,-400.58 1793.4,-398.544 1794.4,-405.473"/>
</g>
<!-- database postgresql\nadd superuser -->
<g id="node22" class="node"><title>database postgresql\nadd superuser</title>
<ellipse fill="none" stroke="black" cx="1071" cy="-388" rx="88.3424" ry="29.3315"/>
<text text-anchor="middle" x="1071" y="-390.8" font-family="Times,serif" font-size="14.00">database postgresql</text>
<text text-anchor="middle" x="1071" y="-374" font-family="Times,serif" font-size="14.00">add superuser</text>
</g>
<!-- zhdk complete&#45;setup&#45;&gt;database postgresql\nadd superuser -->
<g id="edge18" class="edge"><title>zhdk complete&#45;setup&#45;&gt;database postgresql\nadd superuser</title>
<path fill="none" stroke="black" d="M1203.13,-466.626C1180.85,-453.536 1149.01,-434.831 1122.17,-419.062"/>
<polygon fill="black" stroke="black" points="1123.68,-415.887 1113.28,-413.84 1120.13,-421.923 1123.68,-415.887"/>
</g>
<!-- ci tightvnc\ninstall -->
<g id="node23" class="node"><title>ci tightvnc\ninstall</title>
<ellipse fill="none" stroke="black" cx="1231" cy="-388" rx="53.0661" ry="29.3315"/>
<text text-anchor="middle" x="1231" y="-390.8" font-family="Times,serif" font-size="14.00">ci tightvnc</text>
<text text-anchor="middle" x="1231" y="-374" font-family="Times,serif" font-size="14.00">install</text>
</g>
<!-- zhdk complete&#45;setup&#45;&gt;ci tightvnc\ninstall -->
<g id="edge19" class="edge"><title>zhdk complete&#45;setup&#45;&gt;ci tightvnc\ninstall</title>
<path fill="none" stroke="black" d="M1231,-465.759C1231,-455.136 1231,-441.068 1231,-427.88"/>
<polygon fill="black" stroke="black" points="1234.5,-427.574 1231,-417.574 1227.5,-427.574 1234.5,-427.574"/>
</g>
<!-- zhdk complete&#45;setup&#45;&gt;invoke as user -->
<g id="edge20" class="edge"><title>zhdk complete&#45;setup&#45;&gt;invoke as user</title>
<path fill="none" stroke="black" d="M1253.9,-466.522C1268.11,-454.803 1285.12,-437.689 1293,-418 1302.91,-393.244 1309.98,-378.561 1293,-358 1266.05,-325.37 1147.52,-330.169 1106,-322 1058.13,-312.582 1003.99,-301.69 963.522,-293.5"/>
<polygon fill="black" stroke="black" points="964.035,-290.033 953.539,-291.479 962.646,-296.894 964.035,-290.033"/>
</g>
<!-- zhdk complete&#45;setup&#45;as&#45;user -->
<g id="node24" class="node"><title>zhdk complete&#45;setup&#45;as&#45;user</title>
<ellipse fill="none" stroke="black" cx="1553" cy="-388" rx="121.171" ry="18"/>
<text text-anchor="middle" x="1553" y="-382.4" font-family="Times,serif" font-size="14.00">zhdk complete&#45;setup&#45;as&#45;user</text>
</g>
<!-- zhdk complete&#45;setup&#45;&gt;zhdk complete&#45;setup&#45;as&#45;user -->
<g id="edge21" class="edge"><title>zhdk complete&#45;setup&#45;&gt;zhdk complete&#45;setup&#45;as&#45;user</title>
<path fill="none" stroke="black" d="M1279.9,-468.723C1336.32,-452.255 1429.18,-425.145 1490.72,-407.182"/>
<polygon fill="black" stroke="black" points="1492.07,-410.433 1500.69,-404.271 1490.11,-403.713 1492.07,-410.433"/>
</g>
<!-- zhdk domina&#45;ci&#45;executor\nsetup&#45;&gt;invoke as user -->
<g id="edge29" class="edge"><title>zhdk domina&#45;ci&#45;executor\nsetup&#45;&gt;invoke as user</title>
<path fill="none" stroke="black" d="M866.863,-358.594C874.13,-342.546 883.148,-322.632 890.228,-306.997"/>
<polygon fill="black" stroke="black" points="893.416,-308.441 894.353,-297.888 887.039,-305.553 893.416,-308.441"/>
</g>
<!-- zhdk domina&#45;ci&#45;executor\nas&#45;domina&#45;setup -->
<g id="node29" class="node"><title>zhdk domina&#45;ci&#45;executor\nas&#45;domina&#45;setup</title>
<ellipse fill="none" stroke="black" cx="707" cy="-280" rx="110.311" ry="29.3315"/>
<text text-anchor="middle" x="707" y="-282.8" font-family="Times,serif" font-size="14.00">zhdk domina&#45;ci&#45;executor</text>
<text text-anchor="middle" x="707" y="-266" font-family="Times,serif" font-size="14.00">as&#45;domina&#45;setup</text>
</g>
<!-- zhdk domina&#45;ci&#45;executor\nsetup&#45;&gt;zhdk domina&#45;ci&#45;executor\nas&#45;domina&#45;setup -->
<g id="edge30" class="edge"><title>zhdk domina&#45;ci&#45;executor\nsetup&#45;&gt;zhdk domina&#45;ci&#45;executor\nas&#45;domina&#45;setup</title>
<path fill="none" stroke="black" d="M816.906,-360.252C797.32,-346.129 773.12,-328.679 752.419,-313.751"/>
<polygon fill="black" stroke="black" points="754.241,-310.75 744.082,-307.74 750.146,-316.428 754.241,-310.75"/>
</g>
<!-- zhdk ssh add&#45;keys -->
<g id="node25" class="node"><title>zhdk ssh add&#45;keys</title>
<ellipse fill="none" stroke="black" cx="1197" cy="-280" rx="81.2634" ry="18"/>
<text text-anchor="middle" x="1197" y="-274.4" font-family="Times,serif" font-size="14.00">zhdk ssh add&#45;keys</text>
</g>
<!-- zhdk complete&#45;setup&#45;as&#45;user&#45;&gt;zhdk ssh add&#45;keys -->
<g id="edge22" class="edge"><title>zhdk complete&#45;setup&#45;as&#45;user&#45;&gt;zhdk ssh add&#45;keys</title>
<path fill="none" stroke="black" d="M1501.23,-371.587C1435.16,-351.912 1321.26,-318 1253.15,-297.718"/>
<polygon fill="black" stroke="black" points="1254.02,-294.327 1243.44,-294.828 1252.03,-301.036 1254.02,-294.327"/>
</g>
<!-- ci chromedriver\ninstall -->
<g id="node26" class="node"><title>ci chromedriver\ninstall</title>
<ellipse fill="none" stroke="black" cx="1476" cy="-280" rx="73.8819" ry="29.3315"/>
<text text-anchor="middle" x="1476" y="-282.8" font-family="Times,serif" font-size="14.00">ci chromedriver</text>
<text text-anchor="middle" x="1476" y="-266" font-family="Times,serif" font-size="14.00">install</text>
</g>
<!-- zhdk complete&#45;setup&#45;as&#45;user&#45;&gt;ci chromedriver\ninstall -->
<g id="edge23" class="edge"><title>zhdk complete&#45;setup&#45;as&#45;user&#45;&gt;ci chromedriver\ninstall</title>
<path fill="none" stroke="black" d="M1540.63,-369.969C1530.33,-355.787 1515.3,-335.097 1502.32,-317.239"/>
<polygon fill="black" stroke="black" points="1504.86,-314.774 1496.15,-308.74 1499.2,-318.888 1504.86,-314.774"/>
</g>
<!-- zhdk complete&#45;setup&#45;as&#45;user&#45;&gt;zhdk ci ruby\ninstall -->
<g id="edge24" class="edge"><title>zhdk complete&#45;setup&#45;as&#45;user&#45;&gt;zhdk ci ruby\ninstall</title>
<path fill="none" stroke="black" d="M1565.21,-369.969C1575.52,-355.585 1590.63,-334.509 1603.56,-316.48"/>
<polygon fill="black" stroke="black" points="1606.72,-318.084 1609.7,-307.917 1601.03,-314.005 1606.72,-318.084"/>
</g>
<!-- ci phantomjs\ninstall -->
<g id="node27" class="node"><title>ci phantomjs\ninstall</title>
<ellipse fill="none" stroke="black" cx="1770" cy="-280" rx="62.269" ry="29.3315"/>
<text text-anchor="middle" x="1770" y="-282.8" font-family="Times,serif" font-size="14.00">ci phantomjs</text>
<text text-anchor="middle" x="1770" y="-266" font-family="Times,serif" font-size="14.00">install</text>
</g>
<!-- zhdk complete&#45;setup&#45;as&#45;user&#45;&gt;ci phantomjs\ninstall -->
<g id="edge25" class="edge"><title>zhdk complete&#45;setup&#45;as&#45;user&#45;&gt;ci phantomjs\ninstall</title>
<path fill="none" stroke="black" d="M1591.63,-370.883C1621.12,-358.294 1662.57,-339.975 1698,-322 1706.29,-317.794 1714.98,-313.098 1723.35,-308.429"/>
<polygon fill="black" stroke="black" points="1725.27,-311.361 1732.26,-303.397 1721.83,-305.266 1725.27,-311.361"/>
</g>
<!-- ci tightvnc\nuser setup -->
<g id="node28" class="node"><title>ci tightvnc\nuser setup</title>
<ellipse fill="none" stroke="black" cx="1904" cy="-280" rx="53.0661" ry="29.3315"/>
<text text-anchor="middle" x="1904" y="-282.8" font-family="Times,serif" font-size="14.00">ci tightvnc</text>
<text text-anchor="middle" x="1904" y="-266" font-family="Times,serif" font-size="14.00">user setup</text>
</g>
<!-- zhdk complete&#45;setup&#45;as&#45;user&#45;&gt;ci tightvnc\nuser setup -->
<g id="edge26" class="edge"><title>zhdk complete&#45;setup&#45;as&#45;user&#45;&gt;ci tightvnc\nuser setup</title>
<path fill="none" stroke="black" d="M1640.54,-375.52C1698.94,-365.884 1776.54,-349.211 1841,-322 1848.95,-318.644 1857,-314.286 1864.56,-309.668"/>
<polygon fill="black" stroke="black" points="1866.63,-312.499 1873.18,-304.172 1862.87,-306.597 1866.63,-312.499"/>
</g>
<!-- zhdk ssh add&#45;keys&#45;&gt;ssh download\nand add to\nauthorized\nkeys -->
<g id="edge31" class="edge"><title>zhdk ssh add&#45;keys&#45;&gt;ssh download\nand add to\nauthorized\nkeys</title>
<path fill="none" stroke="black" d="M1197,-261.87C1197,-249.032 1197,-230.615 1197,-212.418"/>
<polygon fill="black" stroke="black" points="1200.5,-212.369 1197,-202.369 1193.5,-212.369 1200.5,-212.369"/>
</g>
<!-- setup scripts -->
<g id="node32" class="node"><title>setup scripts</title>
<ellipse fill="none" stroke="black" cx="1054" cy="-149" rx="59.0716" ry="18"/>
<text text-anchor="middle" x="1054" y="-143.4" font-family="Times,serif" font-size="14.00">setup scripts</text>
</g>
<!-- zhdk ssh add&#45;keys&#45;&gt;setup scripts -->
<g id="edge32" class="edge"><title>zhdk ssh add&#45;keys&#45;&gt;setup scripts</title>
<path fill="none" stroke="black" d="M1178.6,-262.4C1153.5,-239.759 1108.4,-199.078 1079.9,-173.365"/>
<polygon fill="black" stroke="black" points="1082.1,-170.636 1072.33,-166.537 1077.41,-175.834 1082.1,-170.636"/>
</g>
<!-- ci domina&#45;ci&#45;executor\ninstall -->
<g id="node30" class="node"><title>ci domina&#45;ci&#45;executor\ninstall</title>
<ellipse fill="none" stroke="black" cx="525" cy="-149" rx="98.1629" ry="29.3315"/>
<text text-anchor="middle" x="525" y="-151.8" font-family="Times,serif" font-size="14.00">ci domina&#45;ci&#45;executor</text>
<text text-anchor="middle" x="525" y="-135" font-family="Times,serif" font-size="14.00">install</text>
</g>
<!-- zhdk domina&#45;ci&#45;executor\nas&#45;domina&#45;setup&#45;&gt;ci domina&#45;ci&#45;executor\ninstall -->
<g id="edge27" class="edge"><title>zhdk domina&#45;ci&#45;executor\nas&#45;domina&#45;setup&#45;&gt;ci domina&#45;ci&#45;executor\ninstall</title>
<path fill="none" stroke="black" d="M669.289,-252.271C640.548,-231.899 600.855,-203.766 570.375,-182.162"/>
<polygon fill="black" stroke="black" points="572.222,-179.18 562.039,-176.253 568.174,-184.891 572.222,-179.18"/>
</g>
<!-- jvm leiningen\ninstall -->
<g id="node31" class="node"><title>jvm leiningen\ninstall</title>
<ellipse fill="none" stroke="black" cx="707" cy="-149" rx="66.0402" ry="29.3315"/>
<text text-anchor="middle" x="707" y="-151.8" font-family="Times,serif" font-size="14.00">jvm leiningen</text>
<text text-anchor="middle" x="707" y="-135" font-family="Times,serif" font-size="14.00">install</text>
</g>
<!-- zhdk domina&#45;ci&#45;executor\nas&#45;domina&#45;setup&#45;&gt;jvm leiningen\ninstall -->
<g id="edge28" class="edge"><title>zhdk domina&#45;ci&#45;executor\nas&#45;domina&#45;setup&#45;&gt;jvm leiningen\ninstall</title>
<path fill="none" stroke="black" d="M707,-250.371C707,-232.25 707,-208.591 707,-188.794"/>
<polygon fill="black" stroke="black" points="710.5,-188.549 707,-178.549 703.5,-188.549 710.5,-188.549"/>
</g>
</g>
</svg>
