<?xml version="1.0" encoding="UTF-8" standalone="no"?>
<!DOCTYPE svg PUBLIC "-//W3C//DTD SVG 1.1//EN"
 "http://www.w3.org/Graphics/SVG/1.1/DTD/svg11.dtd">
<!-- Generated by graphviz version 2.30.1 (20131017.1317)
 -->
<!-- Title: Debuntu call graph Pages: 1 -->
<svg width="2330pt" height="546pt"
 viewBox="0.00 0.00 2330.00 546.00" xmlns="http://www.w3.org/2000/svg" xmlns:xlink="http://www.w3.org/1999/xlink">
<g id="graph0" class="graph" transform="scale(1 1) rotate(0) translate(4 542)">
<title>Debuntu call graph</title>
<polygon fill="white" stroke="white" points="-4,5 -4,-542 2327,-542 2327,5 -4,5"/>
<!-- database postgresql\ninstall 9.2 -->
<g id="node1" class="node"><title>database postgresql\ninstall 9.2</title>
<ellipse fill="none" stroke="black" cx="1240" cy="-400" rx="88.3424" ry="29.3315"/>
<text text-anchor="middle" x="1240" y="-402.8" font-family="Times,serif" font-size="14.00">database postgresql</text>
<text text-anchor="middle" x="1240" y="-386" font-family="Times,serif" font-size="14.00">install 9.2</text>
</g>
<!-- database postgresql\nadd pgdg apt\nrepository -->
<g id="node2" class="node"><title>database postgresql\nadd pgdg apt\nrepository</title>
<ellipse fill="none" stroke="black" cx="1317" cy="-280" rx="88.3424" ry="41.0911"/>
<text text-anchor="middle" x="1317" y="-291.2" font-family="Times,serif" font-size="14.00">database postgresql</text>
<text text-anchor="middle" x="1317" y="-274.4" font-family="Times,serif" font-size="14.00">add pgdg apt</text>
<text text-anchor="middle" x="1317" y="-257.6" font-family="Times,serif" font-size="14.00">repository</text>
</g>
<!-- database postgresql\ninstall 9.2&#45;&gt;database postgresql\nadd pgdg apt\nrepository -->
<g id="edge1" class="edge"><title>database postgresql\ninstall 9.2&#45;&gt;database postgresql\nadd pgdg apt\nrepository</title>
<path fill="none" stroke="black" d="M1258.25,-371.036C1266.58,-358.274 1276.67,-342.804 1286.13,-328.314"/>
<polygon fill="black" stroke="black" points="1289.07,-330.211 1291.6,-319.924 1283.2,-326.386 1289.07,-330.211"/>
</g>
<!-- invoke as user -->
<g id="node3" class="node"><title>invoke as user</title>
<ellipse fill="none" stroke="black" cx="1496" cy="-280" rx="65.9227" ry="18"/>
<text text-anchor="middle" x="1496" y="-274.4" font-family="Times,serif" font-size="14.00">invoke as user</text>
</g>
<!-- meta write functions\nfor sourcing -->
<g id="node4" class="node"><title>meta write functions\nfor sourcing</title>
<ellipse fill="none" stroke="black" cx="1502" cy="-149" rx="92.527" ry="29.3315"/>
<text text-anchor="middle" x="1502" y="-151.8" font-family="Times,serif" font-size="14.00">meta write functions</text>
<text text-anchor="middle" x="1502" y="-135" font-family="Times,serif" font-size="14.00">for sourcing</text>
</g>
<!-- invoke as user&#45;&gt;meta write functions\nfor sourcing -->
<g id="edge2" class="edge"><title>invoke as user&#45;&gt;meta write functions\nfor sourcing</title>
<path fill="none" stroke="black" d="M1496.8,-261.87C1497.66,-243.279 1499.07,-212.988 1500.2,-188.612"/>
<polygon fill="black" stroke="black" points="1503.7,-188.73 1500.67,-178.578 1496.71,-188.405 1503.7,-188.73"/>
</g>
<!-- jvm open jdk\ninstall -->
<g id="node5" class="node"><title>jvm open jdk\ninstall</title>
<ellipse fill="none" stroke="black" cx="566" cy="-400" rx="63.3349" ry="29.3315"/>
<text text-anchor="middle" x="566" y="-402.8" font-family="Times,serif" font-size="14.00">jvm open jdk</text>
<text text-anchor="middle" x="566" y="-386" font-family="Times,serif" font-size="14.00">install</text>
</g>
<!-- system meta\nos&#45;name -->
<g id="node6" class="node"><title>system meta\nos&#45;name</title>
<ellipse fill="none" stroke="black" cx="395" cy="-280" rx="60.2889" ry="29.3315"/>
<text text-anchor="middle" x="395" y="-282.8" font-family="Times,serif" font-size="14.00">system meta</text>
<text text-anchor="middle" x="395" y="-266" font-family="Times,serif" font-size="14.00">os&#45;name</text>
</g>
<!-- jvm open jdk\ninstall&#45;&gt;system meta\nos&#45;name -->
<g id="edge3" class="edge"><title>jvm open jdk\ninstall&#45;&gt;system meta\nos&#45;name</title>
<path fill="none" stroke="black" d="M531.396,-375.121C504.216,-356.365 466.247,-330.164 437.269,-310.168"/>
<polygon fill="black" stroke="black" points="439.188,-307.24 428.969,-304.441 435.212,-313.001 439.188,-307.24"/>
</g>
<!-- ruby rbenv install\njruby 1.7.4 -->
<g id="node7" class="node"><title>ruby rbenv install\njruby 1.7.4</title>
<ellipse fill="none" stroke="black" cx="1694" cy="-149" rx="81.2202" ry="29.3315"/>
<text text-anchor="middle" x="1694" y="-151.8" font-family="Times,serif" font-size="14.00">ruby rbenv install</text>
<text text-anchor="middle" x="1694" y="-135" font-family="Times,serif" font-size="14.00">jruby 1.7.4</text>
</g>
<!-- ruby rbenv install\nruby -->
<g id="node8" class="node"><title>ruby rbenv install\nruby</title>
<ellipse fill="none" stroke="black" cx="1694" cy="-30" rx="81.2202" ry="29.3315"/>
<text text-anchor="middle" x="1694" y="-32.8" font-family="Times,serif" font-size="14.00">ruby rbenv install</text>
<text text-anchor="middle" x="1694" y="-16" font-family="Times,serif" font-size="14.00">ruby</text>
</g>
<!-- ruby rbenv install\njruby 1.7.4&#45;&gt;ruby rbenv install\nruby -->
<g id="edge4" class="edge"><title>ruby rbenv install\njruby 1.7.4&#45;&gt;ruby rbenv install\nruby</title>
<path fill="none" stroke="black" d="M1694,-119.379C1694,-104.506 1694,-86.1109 1694,-69.9607"/>
<polygon fill="black" stroke="black" points="1697.5,-69.7314 1694,-59.7314 1690.5,-69.7315 1697.5,-69.7314"/>
</g>
<!-- ruby rbenv install\nruby 1.9.3 -->
<g id="node9" class="node"><title>ruby rbenv install\nruby 1.9.3</title>
<ellipse fill="none" stroke="black" cx="986" cy="-149" rx="81.2202" ry="29.3315"/>
<text text-anchor="middle" x="986" y="-151.8" font-family="Times,serif" font-size="14.00">ruby rbenv install</text>
<text text-anchor="middle" x="986" y="-135" font-family="Times,serif" font-size="14.00">ruby 1.9.3</text>
</g>
<!-- ruby rbenv install\nruby 1.9.3&#45;&gt;ruby rbenv install\nruby -->
<g id="edge5" class="edge"><title>ruby rbenv install\nruby 1.9.3&#45;&gt;ruby rbenv install\nruby</title>
<path fill="none" stroke="black" d="M1022.01,-122.541C1037.85,-112.602 1057.12,-102.138 1076,-96 1171.81,-64.849 1456.76,-44.5543 1603.87,-35.8556"/>
<polygon fill="black" stroke="black" points="1604.44,-39.3282 1614.22,-35.2493 1604.03,-32.3402 1604.44,-39.3282"/>
</g>
<!-- ruby rbenv install\nruby 2.0.0 -->
<g id="node10" class="node"><title>ruby rbenv install\nruby 2.0.0</title>
<ellipse fill="none" stroke="black" cx="2090" cy="-149" rx="81.2202" ry="29.3315"/>
<text text-anchor="middle" x="2090" y="-151.8" font-family="Times,serif" font-size="14.00">ruby rbenv install</text>
<text text-anchor="middle" x="2090" y="-135" font-family="Times,serif" font-size="14.00">ruby 2.0.0</text>
</g>
<!-- ruby rbenv install\nruby 2.0.0&#45;&gt;ruby rbenv install\nruby -->
<g id="edge6" class="edge"><title>ruby rbenv install\nruby 2.0.0&#45;&gt;ruby rbenv install\nruby</title>
<path fill="none" stroke="black" d="M2051.89,-122.714C2036.07,-113.165 2017.19,-102.942 1999,-96 1927.61,-68.755 1842.23,-51.7942 1779.98,-42.0591"/>
<polygon fill="black" stroke="black" points="1780.22,-38.5552 1769.81,-40.4999 1779.16,-45.4745 1780.22,-38.5552"/>
</g>
<!-- ssh download\nand add to\nauthorized\nkeys -->
<g id="node11" class="node"><title>ssh download\nand add to\nauthorized\nkeys</title>
<ellipse fill="none" stroke="black" cx="821" cy="-149" rx="65.2282" ry="53.3494"/>
<text text-anchor="middle" x="821" y="-168.6" font-family="Times,serif" font-size="14.00">ssh download</text>
<text text-anchor="middle" x="821" y="-151.8" font-family="Times,serif" font-size="14.00">and add to</text>
<text text-anchor="middle" x="821" y="-135" font-family="Times,serif" font-size="14.00">authorized</text>
<text text-anchor="middle" x="821" y="-118.2" font-family="Times,serif" font-size="14.00">keys</text>
</g>
<!-- ssh add to authorized\nkeys -->
<g id="node12" class="node"><title>ssh add to authorized\nkeys</title>
<ellipse fill="none" stroke="black" cx="821" cy="-30" rx="95.247" ry="29.3315"/>
<text text-anchor="middle" x="821" y="-32.8" font-family="Times,serif" font-size="14.00">ssh add to authorized</text>
<text text-anchor="middle" x="821" y="-16" font-family="Times,serif" font-size="14.00">keys</text>
</g>
<!-- ssh download\nand add to\nauthorized\nkeys&#45;&gt;ssh add to authorized\nkeys -->
<g id="edge7" class="edge"><title>ssh download\nand add to\nauthorized\nkeys&#45;&gt;ssh add to authorized\nkeys</title>
<path fill="none" stroke="black" d="M821,-95.6598C821,-86.9325 821,-78.0204 821,-69.7119"/>
<polygon fill="black" stroke="black" points="824.5,-69.5699 821,-59.57 817.5,-69.57 824.5,-69.5699"/>
</g>
<!-- torquebox install\n3.0.0 -->
<g id="node13" class="node"><title>torquebox install\n3.0.0</title>
<ellipse fill="none" stroke="black" cx="326" cy="-508" rx="78.1885" ry="29.3315"/>
<text text-anchor="middle" x="326" y="-510.8" font-family="Times,serif" font-size="14.00">torquebox install</text>
<text text-anchor="middle" x="326" y="-494" font-family="Times,serif" font-size="14.00">3.0.0</text>
</g>
<!-- torquebox install\n3.0.0&#45;&gt;jvm open jdk\ninstall -->
<g id="edge8" class="edge"><title>torquebox install\n3.0.0&#45;&gt;jvm open jdk\ninstall</title>
<path fill="none" stroke="black" d="M382.113,-487.401C414.919,-475.392 456.854,-459.081 493,-442 501.583,-437.944 510.539,-433.289 519.117,-428.604"/>
<polygon fill="black" stroke="black" points="520.844,-431.649 527.89,-423.735 517.447,-425.528 520.844,-431.649"/>
</g>
<!-- torquebox setup\nenv loader -->
<g id="node14" class="node"><title>torquebox setup\nenv loader</title>
<ellipse fill="none" stroke="black" cx="410" cy="-400" rx="74.2377" ry="29.3315"/>
<text text-anchor="middle" x="410" y="-402.8" font-family="Times,serif" font-size="14.00">torquebox setup</text>
<text text-anchor="middle" x="410" y="-386" font-family="Times,serif" font-size="14.00">env loader</text>
</g>
<!-- torquebox install\n3.0.0&#45;&gt;torquebox setup\nenv loader -->
<g id="edge9" class="edge"><title>torquebox install\n3.0.0&#45;&gt;torquebox setup\nenv loader</title>
<path fill="none" stroke="black" d="M347.632,-479.702C358.116,-466.473 370.834,-450.424 382.044,-436.278"/>
<polygon fill="black" stroke="black" points="384.973,-438.216 388.441,-428.205 379.487,-433.869 384.973,-438.216"/>
</g>
<!-- torquebox setup\nlogrotate -->
<g id="node15" class="node"><title>torquebox setup\nlogrotate</title>
<ellipse fill="none" stroke="black" cx="74" cy="-400" rx="74.2377" ry="29.3315"/>
<text text-anchor="middle" x="74" y="-402.8" font-family="Times,serif" font-size="14.00">torquebox setup</text>
<text text-anchor="middle" x="74" y="-386" font-family="Times,serif" font-size="14.00">logrotate</text>
</g>
<!-- torquebox install\n3.0.0&#45;&gt;torquebox setup\nlogrotate -->
<g id="edge10" class="edge"><title>torquebox install\n3.0.0&#45;&gt;torquebox setup\nlogrotate</title>
<path fill="none" stroke="black" d="M271.047,-487.083C238,-474.774 195.26,-458.266 158,-442 148.094,-437.675 137.656,-432.825 127.633,-428.016"/>
<polygon fill="black" stroke="black" points="129.099,-424.837 118.573,-423.628 126.047,-431.137 129.099,-424.837"/>
</g>
<!-- torquebox setup\nstart stop\nscripts -->
<g id="node16" class="node"><title>torquebox setup\nstart stop\nscripts</title>
<ellipse fill="none" stroke="black" cx="242" cy="-400" rx="74.2377" ry="41.0911"/>
<text text-anchor="middle" x="242" y="-411.2" font-family="Times,serif" font-size="14.00">torquebox setup</text>
<text text-anchor="middle" x="242" y="-394.4" font-family="Times,serif" font-size="14.00">start stop</text>
<text text-anchor="middle" x="242" y="-377.6" font-family="Times,serif" font-size="14.00">scripts</text>
</g>
<!-- torquebox install\n3.0.0&#45;&gt;torquebox setup\nstart stop\nscripts -->
<g id="edge11" class="edge"><title>torquebox install\n3.0.0&#45;&gt;torquebox setup\nstart stop\nscripts</title>
<path fill="none" stroke="black" d="M304.368,-479.702C296.31,-469.534 286.932,-457.7 277.934,-446.345"/>
<polygon fill="black" stroke="black" points="280.427,-443.856 271.473,-438.192 274.941,-448.204 280.427,-443.856"/>
</g>
<!-- torquebox setup\nstart stop\nscripts&#45;&gt;system meta\nos&#45;name -->
<g id="edge12" class="edge"><title>torquebox setup\nstart stop\nscripts&#45;&gt;system meta\nos&#45;name</title>
<path fill="none" stroke="black" d="M284.619,-366.13C306.729,-349.078 333.571,-328.377 355.249,-311.658"/>
<polygon fill="black" stroke="black" points="357.503,-314.34 363.284,-305.461 353.228,-308.797 357.503,-314.34"/>
</g>
<!-- torquebox setup\ninit -->
<g id="node17" class="node"><title>torquebox setup\ninit</title>
<ellipse fill="none" stroke="black" cx="242" cy="-280" rx="74.2377" ry="29.3315"/>
<text text-anchor="middle" x="242" y="-282.8" font-family="Times,serif" font-size="14.00">torquebox setup</text>
<text text-anchor="middle" x="242" y="-266" font-family="Times,serif" font-size="14.00">init</text>
</g>
<!-- torquebox setup\nstart stop\nscripts&#45;&gt;torquebox setup\ninit -->
<g id="edge13" class="edge"><title>torquebox setup\nstart stop\nscripts&#45;&gt;torquebox setup\ninit</title>
<path fill="none" stroke="black" d="M242,-358.391C242,-345.891 242,-332.167 242,-319.793"/>
<polygon fill="black" stroke="black" points="245.5,-319.772 242,-309.772 238.5,-319.772 245.5,-319.772"/>
</g>
<!-- torquebox setup\nupstart -->
<g id="node18" class="node"><title>torquebox setup\nupstart</title>
<ellipse fill="none" stroke="black" cx="74" cy="-280" rx="74.2377" ry="29.3315"/>
<text text-anchor="middle" x="74" y="-282.8" font-family="Times,serif" font-size="14.00">torquebox setup</text>
<text text-anchor="middle" x="74" y="-266" font-family="Times,serif" font-size="14.00">upstart</text>
</g>
<!-- torquebox setup\nstart stop\nscripts&#45;&gt;torquebox setup\nupstart -->
<g id="edge14" class="edge"><title>torquebox setup\nstart stop\nscripts&#45;&gt;torquebox setup\nupstart</title>
<path fill="none" stroke="black" d="M196.537,-367.068C172.11,-349.911 142.133,-328.856 117.943,-311.865"/>
<polygon fill="black" stroke="black" points="119.842,-308.921 109.647,-306.038 115.818,-314.65 119.842,-308.921"/>
</g>
<!-- zhdk ci ruby\ninstall -->
<g id="node19" class="node"><title>zhdk ci ruby\ninstall</title>
<ellipse fill="none" stroke="black" cx="1150" cy="-280" rx="60.197" ry="29.3315"/>
<text text-anchor="middle" x="1150" y="-282.8" font-family="Times,serif" font-size="14.00">zhdk ci ruby</text>
<text text-anchor="middle" x="1150" y="-266" font-family="Times,serif" font-size="14.00">install</text>
</g>
<!-- ruby rbenv install -->
<g id="node20" class="node"><title>ruby rbenv install</title>
<ellipse fill="none" stroke="black" cx="1312" cy="-149" rx="79.2379" ry="18"/>
<text text-anchor="middle" x="1312" y="-143.4" font-family="Times,serif" font-size="14.00">ruby rbenv install</text>
</g>
<!-- zhdk ci ruby\ninstall&#45;&gt;ruby rbenv install -->
<g id="edge15" class="edge"><title>zhdk ci ruby\ninstall&#45;&gt;ruby rbenv install</title>
<path fill="none" stroke="black" d="M1180.85,-254.432C1210.26,-231.012 1254.22,-196.012 1283,-173.094"/>
<polygon fill="black" stroke="black" points="1285.41,-175.65 1291.05,-166.683 1281.05,-170.174 1285.41,-175.65"/>
</g>
<!-- zhdk ci ruby\ninstall&#45;&gt;ruby rbenv install\nruby 1.9.3 -->
<g id="edge16" class="edge"><title>zhdk ci ruby\ninstall&#45;&gt;ruby rbenv install\nruby 1.9.3</title>
<path fill="none" stroke="black" d="M1118.77,-254.432C1092.8,-234.006 1055.63,-204.772 1027.22,-182.426"/>
<polygon fill="black" stroke="black" points="1029.11,-179.457 1019.09,-176.026 1024.78,-184.959 1029.11,-179.457"/>
</g>
<!-- zhdk ci ruby\ngherkin setup\nragel lexer -->
<g id="node21" class="node"><title>zhdk ci ruby\ngherkin setup\nragel lexer</title>
<ellipse fill="none" stroke="black" cx="1150" cy="-149" rx="64.3877" ry="41.0911"/>
<text text-anchor="middle" x="1150" y="-160.2" font-family="Times,serif" font-size="14.00">zhdk ci ruby</text>
<text text-anchor="middle" x="1150" y="-143.4" font-family="Times,serif" font-size="14.00">gherkin setup</text>
<text text-anchor="middle" x="1150" y="-126.6" font-family="Times,serif" font-size="14.00">ragel lexer</text>
</g>
<!-- zhdk ci ruby\ninstall&#45;&gt;zhdk ci ruby\ngherkin setup\nragel lexer -->
<g id="edge17" class="edge"><title>zhdk ci ruby\ninstall&#45;&gt;zhdk ci ruby\ngherkin setup\nragel lexer</title>
<path fill="none" stroke="black" d="M1150,-250.371C1150,-235.864 1150,-217.807 1150,-201.025"/>
<polygon fill="black" stroke="black" points="1153.5,-200.783 1150,-190.783 1146.5,-200.783 1153.5,-200.783"/>
</g>
<!-- zhdk complete&#45;setup -->
<g id="node22" class="node"><title>zhdk complete&#45;setup</title>
<ellipse fill="none" stroke="black" cx="1240" cy="-508" rx="91.3236" ry="18"/>
<text text-anchor="middle" x="1240" y="-502.4" font-family="Times,serif" font-size="14.00">zhdk complete&#45;setup</text>
</g>
<!-- zhdk complete&#45;setup&#45;&gt;jvm open jdk\ninstall -->
<g id="edge18" class="edge"><title>zhdk complete&#45;setup&#45;&gt;jvm open jdk\ninstall</title>
<path fill="none" stroke="black" d="M1160.71,-499.102C1062.13,-488.721 888.921,-468.634 742,-442 704.791,-435.255 663.605,-425.773 630.435,-417.626"/>
<polygon fill="black" stroke="black" points="630.96,-414.15 620.412,-415.145 629.278,-420.945 630.96,-414.15"/>
</g>
<!-- zhdk domina&#45;ci&#45;executor\nsetup -->
<g id="node23" class="node"><title>zhdk domina&#45;ci&#45;executor\nsetup</title>
<ellipse fill="none" stroke="black" cx="1496" cy="-400" rx="110.311" ry="29.3315"/>
<text text-anchor="middle" x="1496" y="-402.8" font-family="Times,serif" font-size="14.00">zhdk domina&#45;ci&#45;executor</text>
<text text-anchor="middle" x="1496" y="-386" font-family="Times,serif" font-size="14.00">setup</text>
</g>
<!-- zhdk complete&#45;setup&#45;&gt;zhdk domina&#45;ci&#45;executor\nsetup -->
<g id="edge19" class="edge"><title>zhdk complete&#45;setup&#45;&gt;zhdk domina&#45;ci&#45;executor\nsetup</title>
<path fill="none" stroke="black" d="M1277.5,-491.473C1316.95,-475.138 1379.88,-449.08 1428.1,-429.116"/>
<polygon fill="black" stroke="black" points="1429.63,-432.268 1437.53,-425.209 1426.96,-425.801 1429.63,-432.268"/>
</g>
<!-- zhdk complete&#45;setup&#45;&gt;database postgresql\ninstall 9.2 -->
<g id="edge20" class="edge"><title>zhdk complete&#45;setup&#45;&gt;database postgresql\ninstall 9.2</title>
<path fill="none" stroke="black" d="M1240,-489.969C1240,-476.496 1240,-457.151 1240,-439.939"/>
<polygon fill="black" stroke="black" points="1243.5,-439.569 1240,-429.569 1236.5,-439.57 1243.5,-439.569"/>
</g>
<!-- database postgresql\nadd superuser -->
<g id="node24" class="node"><title>database postgresql\nadd superuser</title>
<ellipse fill="none" stroke="black" cx="1713" cy="-400" rx="88.3424" ry="29.3315"/>
<text text-anchor="middle" x="1713" y="-402.8" font-family="Times,serif" font-size="14.00">database postgresql</text>
<text text-anchor="middle" x="1713" y="-386" font-family="Times,serif" font-size="14.00">add superuser</text>
</g>
<!-- zhdk complete&#45;setup&#45;&gt;database postgresql\nadd superuser -->
<g id="edge21" class="edge"><title>zhdk complete&#45;setup&#45;&gt;database postgresql\nadd superuser</title>
<path fill="none" stroke="black" d="M1318,-498.663C1394.67,-489.264 1514.46,-471.338 1615,-442 1627.77,-438.274 1641.12,-433.394 1653.71,-428.305"/>
<polygon fill="black" stroke="black" points="1655.27,-431.448 1663.17,-424.389 1652.59,-424.98 1655.27,-431.448"/>
</g>
<!-- ci tightvnc\ninstall -->
<g id="node25" class="node"><title>ci tightvnc\ninstall</title>
<ellipse fill="none" stroke="black" cx="804" cy="-400" rx="53.0661" ry="29.3315"/>
<text text-anchor="middle" x="804" y="-402.8" font-family="Times,serif" font-size="14.00">ci tightvnc</text>
<text text-anchor="middle" x="804" y="-386" font-family="Times,serif" font-size="14.00">install</text>
</g>
<!-- zhdk complete&#45;setup&#45;&gt;ci tightvnc\ninstall -->
<g id="edge22" class="edge"><title>zhdk complete&#45;setup&#45;&gt;ci tightvnc\ninstall</title>
<path fill="none" stroke="black" d="M1153.74,-502.08C1076.13,-495.332 960.167,-479.413 866,-442 858.07,-438.849 850.1,-434.591 842.64,-430.007"/>
<polygon fill="black" stroke="black" points="844.448,-427.009 834.149,-424.523 840.651,-432.889 844.448,-427.009"/>
</g>
<!-- zhdk complete&#45;setup&#45;&gt;invoke as user -->
<g id="edge23" class="edge"><title>zhdk complete&#45;setup&#45;&gt;invoke as user</title>
<path fill="none" stroke="black" d="M1272.6,-491.102C1293.21,-479.736 1319.21,-462.798 1337,-442 1363.75,-410.719 1348.94,-389.013 1376,-358 1397.53,-333.333 1428.84,-313.601 1454.08,-300.29"/>
<polygon fill="black" stroke="black" points="1455.77,-303.355 1463.08,-295.679 1452.58,-297.126 1455.77,-303.355"/>
</g>
<!-- zhdk complete&#45;setup&#45;as&#45;user -->
<g id="node26" class="node"><title>zhdk complete&#45;setup&#45;as&#45;user</title>
<ellipse fill="none" stroke="black" cx="997" cy="-400" rx="121.171" ry="18"/>
<text text-anchor="middle" x="997" y="-394.4" font-family="Times,serif" font-size="14.00">zhdk complete&#45;setup&#45;as&#45;user</text>
</g>
<!-- zhdk complete&#45;setup&#45;&gt;zhdk complete&#45;setup&#45;as&#45;user -->
<g id="edge24" class="edge"><title>zhdk complete&#45;setup&#45;&gt;zhdk complete&#45;setup&#45;as&#45;user</title>
<path fill="none" stroke="black" d="M1204.14,-491.359C1161.53,-472.772 1090.33,-441.71 1043.51,-421.289"/>
<polygon fill="black" stroke="black" points="1044.77,-418.017 1034.2,-417.227 1041.97,-424.434 1044.77,-418.017"/>
</g>
<!-- zhdk domina&#45;ci&#45;executor\nsetup&#45;&gt;invoke as user -->
<g id="edge32" class="edge"><title>zhdk domina&#45;ci&#45;executor\nsetup&#45;&gt;invoke as user</title>
<path fill="none" stroke="black" d="M1496,-370.435C1496,-351.62 1496,-327.117 1496,-308.517"/>
<polygon fill="black" stroke="black" points="1499.5,-308.336 1496,-298.336 1492.5,-308.336 1499.5,-308.336"/>
</g>
<!-- zhdk domina&#45;ci&#45;executor\nas&#45;domina&#45;setup -->
<g id="node31" class="node"><title>zhdk domina&#45;ci&#45;executor\nas&#45;domina&#45;setup</title>
<ellipse fill="none" stroke="black" cx="1892" cy="-280" rx="110.311" ry="29.3315"/>
<text text-anchor="middle" x="1892" y="-282.8" font-family="Times,serif" font-size="14.00">zhdk domina&#45;ci&#45;executor</text>
<text text-anchor="middle" x="1892" y="-266" font-family="Times,serif" font-size="14.00">as&#45;domina&#45;setup</text>
</g>
<!-- zhdk domina&#45;ci&#45;executor\nsetup&#45;&gt;zhdk domina&#45;ci&#45;executor\nas&#45;domina&#45;setup -->
<g id="edge33" class="edge"><title>zhdk domina&#45;ci&#45;executor\nsetup&#45;&gt;zhdk domina&#45;ci&#45;executor\nas&#45;domina&#45;setup</title>
<path fill="none" stroke="black" d="M1560.3,-376.047C1577.96,-369.963 1597.16,-363.547 1615,-358 1678.29,-338.322 1750.44,-318.342 1805.24,-303.668"/>
<polygon fill="black" stroke="black" points="1806.16,-307.045 1814.92,-301.083 1804.35,-300.282 1806.16,-307.045"/>
</g>
<!-- zhdk ssh add&#45;keys -->
<g id="node27" class="node"><title>zhdk ssh add&#45;keys</title>
<ellipse fill="none" stroke="black" cx="823" cy="-280" rx="81.2634" ry="18"/>
<text text-anchor="middle" x="823" y="-274.4" font-family="Times,serif" font-size="14.00">zhdk ssh add&#45;keys</text>
</g>
<!-- zhdk complete&#45;setup&#45;as&#45;user&#45;&gt;zhdk ssh add&#45;keys -->
<g id="edge25" class="edge"><title>zhdk complete&#45;setup&#45;as&#45;user&#45;&gt;zhdk ssh add&#45;keys</title>
<path fill="none" stroke="black" d="M972.439,-382.344C941.911,-361.641 889.705,-326.237 855.783,-303.232"/>
<polygon fill="black" stroke="black" points="857.397,-300.098 847.156,-297.382 853.468,-305.891 857.397,-300.098"/>
</g>
<!-- ci chromedriver\ninstall -->
<g id="node28" class="node"><title>ci chromedriver\ninstall</title>
<ellipse fill="none" stroke="black" cx="997" cy="-280" rx="73.8819" ry="29.3315"/>
<text text-anchor="middle" x="997" y="-282.8" font-family="Times,serif" font-size="14.00">ci chromedriver</text>
<text text-anchor="middle" x="997" y="-266" font-family="Times,serif" font-size="14.00">install</text>
</g>
<!-- zhdk complete&#45;setup&#45;as&#45;user&#45;&gt;ci chromedriver\ninstall -->
<g id="edge26" class="edge"><title>zhdk complete&#45;setup&#45;as&#45;user&#45;&gt;ci chromedriver\ninstall</title>
<path fill="none" stroke="black" d="M997,-381.842C997,-365.656 997,-340.815 997,-319.838"/>
<polygon fill="black" stroke="black" points="1000.5,-319.597 997,-309.597 993.5,-319.597 1000.5,-319.597"/>
</g>
<!-- zhdk complete&#45;setup&#45;as&#45;user&#45;&gt;zhdk ci ruby\ninstall -->
<g id="edge27" class="edge"><title>zhdk complete&#45;setup&#45;as&#45;user&#45;&gt;zhdk ci ruby\ninstall</title>
<path fill="none" stroke="black" d="M1018.92,-382.093C1042.79,-363.686 1081.44,-333.874 1110.61,-311.383"/>
<polygon fill="black" stroke="black" points="1112.78,-314.127 1118.56,-305.249 1108.5,-308.584 1112.78,-314.127"/>
</g>
<!-- ci phantomjs\ninstall -->
<g id="node29" class="node"><title>ci phantomjs\ninstall</title>
<ellipse fill="none" stroke="black" cx="536" cy="-280" rx="62.269" ry="29.3315"/>
<text text-anchor="middle" x="536" y="-282.8" font-family="Times,serif" font-size="14.00">ci phantomjs</text>
<text text-anchor="middle" x="536" y="-266" font-family="Times,serif" font-size="14.00">install</text>
</g>
<!-- zhdk complete&#45;setup&#45;as&#45;user&#45;&gt;ci phantomjs\ninstall -->
<g id="edge28" class="edge"><title>zhdk complete&#45;setup&#45;as&#45;user&#45;&gt;ci phantomjs\ninstall</title>
<path fill="none" stroke="black" d="M952.929,-383.212C927.745,-374.696 895.413,-364.608 866,-358 753.038,-332.623 717.6,-359.314 608,-322 598.502,-318.766 588.835,-314.251 579.796,-309.393"/>
<polygon fill="black" stroke="black" points="581.429,-306.296 570.995,-304.455 578.004,-312.401 581.429,-306.296"/>
</g>
<!-- ci tightvnc\nuser setup -->
<g id="node30" class="node"><title>ci tightvnc\nuser setup</title>
<ellipse fill="none" stroke="black" cx="670" cy="-280" rx="53.0661" ry="29.3315"/>
<text text-anchor="middle" x="670" y="-282.8" font-family="Times,serif" font-size="14.00">ci tightvnc</text>
<text text-anchor="middle" x="670" y="-266" font-family="Times,serif" font-size="14.00">user setup</text>
</g>
<!-- zhdk complete&#45;setup&#45;as&#45;user&#45;&gt;ci tightvnc\nuser setup -->
<g id="edge29" class="edge"><title>zhdk complete&#45;setup&#45;as&#45;user&#45;&gt;ci tightvnc\nuser setup</title>
<path fill="none" stroke="black" d="M948.925,-383.437C924.215,-375.569 893.575,-366.016 866,-358 806.784,-340.787 788.223,-347.335 732,-322 724.305,-318.532 716.495,-314.16 709.13,-309.572"/>
<polygon fill="black" stroke="black" points="711.02,-306.626 700.724,-304.129 707.215,-312.502 711.02,-306.626"/>
</g>
<!-- zhdk ssh add&#45;keys&#45;&gt;ssh download\nand add to\nauthorized\nkeys -->
<g id="edge34" class="edge"><title>zhdk ssh add&#45;keys&#45;&gt;ssh download\nand add to\nauthorized\nkeys</title>
<path fill="none" stroke="black" d="M822.734,-261.87C822.535,-249.032 822.25,-230.615 821.968,-212.418"/>
<polygon fill="black" stroke="black" points="825.467,-212.313 821.812,-202.369 818.467,-212.422 825.467,-212.313"/>
</g>
<!-- setup scripts -->
<g id="node34" class="node"><title>setup scripts</title>
<ellipse fill="none" stroke="black" cx="678" cy="-149" rx="59.0716" ry="18"/>
<text text-anchor="middle" x="678" y="-143.4" font-family="Times,serif" font-size="14.00">setup scripts</text>
</g>
<!-- zhdk ssh add&#45;keys&#45;&gt;setup scripts -->
<g id="edge35" class="edge"><title>zhdk ssh add&#45;keys&#45;&gt;setup scripts</title>
<path fill="none" stroke="black" d="M804.341,-262.4C778.752,-239.634 732.662,-198.63 703.788,-172.942"/>
<polygon fill="black" stroke="black" points="705.929,-170.163 696.132,-166.131 701.277,-175.393 705.929,-170.163"/>
</g>
<!-- ci domina&#45;ci&#45;executor\ninstall -->
<g id="node32" class="node"><title>ci domina&#45;ci&#45;executor\ninstall</title>
<ellipse fill="none" stroke="black" cx="1892" cy="-149" rx="98.1629" ry="29.3315"/>
<text text-anchor="middle" x="1892" y="-151.8" font-family="Times,serif" font-size="14.00">ci domina&#45;ci&#45;executor</text>
<text text-anchor="middle" x="1892" y="-135" font-family="Times,serif" font-size="14.00">install</text>
</g>
<!-- zhdk domina&#45;ci&#45;executor\nas&#45;domina&#45;setup&#45;&gt;ci domina&#45;ci&#45;executor\ninstall -->
<g id="edge30" class="edge"><title>zhdk domina&#45;ci&#45;executor\nas&#45;domina&#45;setup&#45;&gt;ci domina&#45;ci&#45;executor\ninstall</title>
<path fill="none" stroke="black" d="M1892,-250.371C1892,-232.25 1892,-208.591 1892,-188.794"/>
<polygon fill="black" stroke="black" points="1895.5,-188.549 1892,-178.549 1888.5,-188.549 1895.5,-188.549"/>
</g>
<!-- jvm leiningen\ninstall -->
<g id="node33" class="node"><title>jvm leiningen\ninstall</title>
<ellipse fill="none" stroke="black" cx="2255" cy="-149" rx="66.0402" ry="29.3315"/>
<text text-anchor="middle" x="2255" y="-151.8" font-family="Times,serif" font-size="14.00">jvm leiningen</text>
<text text-anchor="middle" x="2255" y="-135" font-family="Times,serif" font-size="14.00">install</text>
</g>
<!-- zhdk domina&#45;ci&#45;executor\nas&#45;domina&#45;setup&#45;&gt;jvm leiningen\ninstall -->
<g id="edge31" class="edge"><title>zhdk domina&#45;ci&#45;executor\nas&#45;domina&#45;setup&#45;&gt;jvm leiningen\ninstall</title>
<path fill="none" stroke="black" d="M1982.68,-263.132C2040.83,-250.951 2116.95,-231.202 2180,-202 2192.26,-196.322 2204.67,-188.658 2215.78,-180.96"/>
<polygon fill="black" stroke="black" points="2217.88,-183.758 2223.99,-175.1 2213.82,-178.06 2217.88,-183.758"/>
</g>
</g>
</svg>
