<?xml version="1.0" encoding="UTF-8" standalone="no"?>
<!DOCTYPE svg PUBLIC "-//W3C//DTD SVG 1.1//EN"
 "http://www.w3.org/Graphics/SVG/1.1/DTD/svg11.dtd">
<!-- Generated by graphviz version 2.30.1 (20131017.1317)
 -->
<!-- Title: Debuntu call graph Pages: 1 -->
<svg width="2502pt" height="522pt"
 viewBox="0.00 0.00 2502.00 522.00" xmlns="http://www.w3.org/2000/svg" xmlns:xlink="http://www.w3.org/1999/xlink">
<g id="graph0" class="graph" transform="scale(1 1) rotate(0) translate(4 518)">
<title>Debuntu call graph</title>
<polygon fill="white" stroke="white" points="-4,5 -4,-518 2499,-518 2499,5 -4,5"/>
<!-- database postgresql\ninstall 9.2 -->
<g id="node1" class="node"><title>database postgresql\ninstall 9.2</title>
<ellipse fill="none" stroke="black" cx="1268" cy="-388" rx="88.3424" ry="29.3315"/>
<text text-anchor="middle" x="1268" y="-390.8" font-family="Times,serif" font-size="14.00">database postgresql</text>
<text text-anchor="middle" x="1268" y="-374" font-family="Times,serif" font-size="14.00">install 9.2</text>
</g>
<!-- database postgresql\nadd pgdg apt\nrepository -->
<g id="node2" class="node"><title>database postgresql\nadd pgdg apt\nrepository</title>
<ellipse fill="none" stroke="black" cx="1533" cy="-280" rx="88.3424" ry="41.0911"/>
<text text-anchor="middle" x="1533" y="-291.2" font-family="Times,serif" font-size="14.00">database postgresql</text>
<text text-anchor="middle" x="1533" y="-274.4" font-family="Times,serif" font-size="14.00">add pgdg apt</text>
<text text-anchor="middle" x="1533" y="-257.6" font-family="Times,serif" font-size="14.00">repository</text>
</g>
<!-- database postgresql\ninstall 9.2&#45;&gt;database postgresql\nadd pgdg apt\nrepository -->
<g id="edge1" class="edge"><title>database postgresql\ninstall 9.2&#45;&gt;database postgresql\nadd pgdg apt\nrepository</title>
<path fill="none" stroke="black" d="M1324.57,-365.387C1356.97,-352.904 1398.36,-336.792 1435,-322 1442.81,-318.849 1450.94,-315.518 1459.05,-312.172"/>
<polygon fill="black" stroke="black" points="1460.62,-315.308 1468.52,-308.247 1457.94,-308.841 1460.62,-315.308"/>
</g>
<!-- invoke as user -->
<g id="node3" class="node"><title>invoke as user</title>
<ellipse fill="none" stroke="black" cx="288" cy="-280" rx="65.9227" ry="18"/>
<text text-anchor="middle" x="288" y="-274.4" font-family="Times,serif" font-size="14.00">invoke as user</text>
</g>
<!-- meta write functions\nfor sourcing -->
<g id="node4" class="node"><title>meta write functions\nfor sourcing</title>
<ellipse fill="none" stroke="black" cx="92" cy="-149" rx="92.527" ry="29.3315"/>
<text text-anchor="middle" x="92" y="-151.8" font-family="Times,serif" font-size="14.00">meta write functions</text>
<text text-anchor="middle" x="92" y="-135" font-family="Times,serif" font-size="14.00">for sourcing</text>
</g>
<!-- invoke as user&#45;&gt;meta write functions\nfor sourcing -->
<g id="edge2" class="edge"><title>invoke as user&#45;&gt;meta write functions\nfor sourcing</title>
<path fill="none" stroke="black" d="M263.967,-263.182C233.175,-242.916 179.093,-207.322 139.783,-181.449"/>
<polygon fill="black" stroke="black" points="141.411,-178.331 131.134,-175.756 137.563,-184.178 141.411,-178.331"/>
</g>
<!-- jvm open jdk\ninstall -->
<g id="node5" class="node"><title>jvm open jdk\ninstall</title>
<ellipse fill="none" stroke="black" cx="1758" cy="-388" rx="63.3349" ry="29.3315"/>
<text text-anchor="middle" x="1758" y="-390.8" font-family="Times,serif" font-size="14.00">jvm open jdk</text>
<text text-anchor="middle" x="1758" y="-374" font-family="Times,serif" font-size="14.00">install</text>
</g>
<!-- system meta\nos&#45;name -->
<g id="node6" class="node"><title>system meta\nos&#45;name</title>
<ellipse fill="none" stroke="black" cx="1758" cy="-280" rx="60.2889" ry="29.3315"/>
<text text-anchor="middle" x="1758" y="-282.8" font-family="Times,serif" font-size="14.00">system meta</text>
<text text-anchor="middle" x="1758" y="-266" font-family="Times,serif" font-size="14.00">os&#45;name</text>
</g>
<!-- jvm open jdk\ninstall&#45;&gt;system meta\nos&#45;name -->
<g id="edge3" class="edge"><title>jvm open jdk\ninstall&#45;&gt;system meta\nos&#45;name</title>
<path fill="none" stroke="black" d="M1758,-358.315C1758,-346.531 1758,-332.7 1758,-320.019"/>
<polygon fill="black" stroke="black" points="1761.5,-319.708 1758,-309.708 1754.5,-319.708 1761.5,-319.708"/>
</g>
<!-- ruby rbenv install\njruby 1.7.4 -->
<g id="node7" class="node"><title>ruby rbenv install\njruby 1.7.4</title>
<ellipse fill="none" stroke="black" cx="934" cy="-149" rx="81.2202" ry="29.3315"/>
<text text-anchor="middle" x="934" y="-151.8" font-family="Times,serif" font-size="14.00">ruby rbenv install</text>
<text text-anchor="middle" x="934" y="-135" font-family="Times,serif" font-size="14.00">jruby 1.7.4</text>
</g>
<!-- ruby rbenv install\nruby -->
<g id="node8" class="node"><title>ruby rbenv install\nruby</title>
<ellipse fill="none" stroke="black" cx="1438" cy="-30" rx="81.2202" ry="29.3315"/>
<text text-anchor="middle" x="1438" y="-32.8" font-family="Times,serif" font-size="14.00">ruby rbenv install</text>
<text text-anchor="middle" x="1438" y="-16" font-family="Times,serif" font-size="14.00">ruby</text>
</g>
<!-- ruby rbenv install\njruby 1.7.4&#45;&gt;ruby rbenv install\nruby -->
<g id="edge4" class="edge"><title>ruby rbenv install\njruby 1.7.4&#45;&gt;ruby rbenv install\nruby</title>
<path fill="none" stroke="black" d="M970.602,-122.739C986.386,-112.957 1005.46,-102.556 1024,-96 1131.28,-58.0731 1261.99,-42.2273 1347.47,-35.6382"/>
<polygon fill="black" stroke="black" points="1347.95,-39.1121 1357.66,-34.8797 1347.43,-32.1314 1347.95,-39.1121"/>
</g>
<!-- ruby rbenv install\nruby 1.9.3 -->
<g id="node9" class="node"><title>ruby rbenv install\nruby 1.9.3</title>
<ellipse fill="none" stroke="black" cx="1618" cy="-149" rx="81.2202" ry="29.3315"/>
<text text-anchor="middle" x="1618" y="-151.8" font-family="Times,serif" font-size="14.00">ruby rbenv install</text>
<text text-anchor="middle" x="1618" y="-135" font-family="Times,serif" font-size="14.00">ruby 1.9.3</text>
</g>
<!-- ruby rbenv install\nruby 1.9.3&#45;&gt;ruby rbenv install\nruby -->
<g id="edge5" class="edge"><title>ruby rbenv install\nruby 1.9.3&#45;&gt;ruby rbenv install\nruby</title>
<path fill="none" stroke="black" d="M1579.39,-122.901C1551.74,-104.933 1514.38,-80.6447 1485,-61.5498"/>
<polygon fill="black" stroke="black" points="1486.84,-58.5733 1476.55,-56.0579 1483.03,-64.4424 1486.84,-58.5733"/>
</g>
<!-- ruby rbenv install\nruby 2.0.0 -->
<g id="node10" class="node"><title>ruby rbenv install\nruby 2.0.0</title>
<ellipse fill="none" stroke="black" cx="1438" cy="-149" rx="81.2202" ry="29.3315"/>
<text text-anchor="middle" x="1438" y="-151.8" font-family="Times,serif" font-size="14.00">ruby rbenv install</text>
<text text-anchor="middle" x="1438" y="-135" font-family="Times,serif" font-size="14.00">ruby 2.0.0</text>
</g>
<!-- ruby rbenv install\nruby 2.0.0&#45;&gt;ruby rbenv install\nruby -->
<g id="edge6" class="edge"><title>ruby rbenv install\nruby 2.0.0&#45;&gt;ruby rbenv install\nruby</title>
<path fill="none" stroke="black" d="M1438,-119.379C1438,-104.506 1438,-86.1109 1438,-69.9607"/>
<polygon fill="black" stroke="black" points="1441.5,-69.7314 1438,-59.7314 1434.5,-69.7315 1441.5,-69.7314"/>
</g>
<!-- ssh download\nand add to\nauthorized\nkeys -->
<g id="node11" class="node"><title>ssh download\nand add to\nauthorized\nkeys</title>
<ellipse fill="none" stroke="black" cx="633" cy="-149" rx="65.2282" ry="53.3494"/>
<text text-anchor="middle" x="633" y="-168.6" font-family="Times,serif" font-size="14.00">ssh download</text>
<text text-anchor="middle" x="633" y="-151.8" font-family="Times,serif" font-size="14.00">and add to</text>
<text text-anchor="middle" x="633" y="-135" font-family="Times,serif" font-size="14.00">authorized</text>
<text text-anchor="middle" x="633" y="-118.2" font-family="Times,serif" font-size="14.00">keys</text>
</g>
<!-- ssh add to authorized\nkeys -->
<g id="node12" class="node"><title>ssh add to authorized\nkeys</title>
<ellipse fill="none" stroke="black" cx="633" cy="-30" rx="95.247" ry="29.3315"/>
<text text-anchor="middle" x="633" y="-32.8" font-family="Times,serif" font-size="14.00">ssh add to authorized</text>
<text text-anchor="middle" x="633" y="-16" font-family="Times,serif" font-size="14.00">keys</text>
</g>
<!-- ssh download\nand add to\nauthorized\nkeys&#45;&gt;ssh add to authorized\nkeys -->
<g id="edge7" class="edge"><title>ssh download\nand add to\nauthorized\nkeys&#45;&gt;ssh add to authorized\nkeys</title>
<path fill="none" stroke="black" d="M633,-95.6598C633,-86.9325 633,-78.0204 633,-69.7119"/>
<polygon fill="black" stroke="black" points="636.5,-69.5699 633,-59.57 629.5,-69.57 636.5,-69.5699"/>
</g>
<!-- torquebox install\n3.0.0 -->
<g id="node13" class="node"><title>torquebox install\n3.0.0</title>
<ellipse fill="none" stroke="black" cx="2083" cy="-484" rx="78.1885" ry="29.3315"/>
<text text-anchor="middle" x="2083" y="-486.8" font-family="Times,serif" font-size="14.00">torquebox install</text>
<text text-anchor="middle" x="2083" y="-470" font-family="Times,serif" font-size="14.00">3.0.0</text>
</g>
<!-- system is ubuntu -->
<g id="node14" class="node"><title>system is ubuntu</title>
<ellipse fill="none" stroke="black" cx="2083" cy="-388" rx="75.4355" ry="18"/>
<text text-anchor="middle" x="2083" y="-382.4" font-family="Times,serif" font-size="14.00">system is ubuntu</text>
</g>
<!-- torquebox install\n3.0.0&#45;&gt;system is ubuntu -->
<g id="edge8" class="edge"><title>torquebox install\n3.0.0&#45;&gt;system is ubuntu</title>
<path fill="none" stroke="black" d="M2083,-454.542C2083,-442.461 2083,-428.434 2083,-416.464"/>
<polygon fill="black" stroke="black" points="2086.5,-416.164 2083,-406.164 2079.5,-416.164 2086.5,-416.164"/>
</g>
<!-- torquebox install\n3.0.0&#45;&gt;jvm open jdk\ninstall -->
<g id="edge9" class="edge"><title>torquebox install\n3.0.0&#45;&gt;jvm open jdk\ninstall</title>
<path fill="none" stroke="black" d="M2016.52,-468.443C1965.09,-456.576 1892.37,-438.474 1830,-418 1824.5,-416.196 1818.83,-414.182 1813.19,-412.078"/>
<polygon fill="black" stroke="black" points="1814.35,-408.776 1803.76,-408.476 1811.85,-415.315 1814.35,-408.776"/>
</g>
<!-- torquebox setup\nenv loader -->
<g id="node15" class="node"><title>torquebox setup\nenv loader</title>
<ellipse fill="none" stroke="black" cx="2252" cy="-388" rx="74.2377" ry="29.3315"/>
<text text-anchor="middle" x="2252" y="-390.8" font-family="Times,serif" font-size="14.00">torquebox setup</text>
<text text-anchor="middle" x="2252" y="-374" font-family="Times,serif" font-size="14.00">env loader</text>
</g>
<!-- torquebox install\n3.0.0&#45;&gt;torquebox setup\nenv loader -->
<g id="edge10" class="edge"><title>torquebox install\n3.0.0&#45;&gt;torquebox setup\nenv loader</title>
<path fill="none" stroke="black" d="M2125.65,-459.28C2148.54,-446.548 2176.91,-430.767 2200.97,-417.386"/>
<polygon fill="black" stroke="black" points="2202.92,-420.307 2209.95,-412.387 2199.51,-414.189 2202.92,-420.307"/>
</g>
<!-- torquebox setup\nlogrotate -->
<g id="node16" class="node"><title>torquebox setup\nlogrotate</title>
<ellipse fill="none" stroke="black" cx="2420" cy="-388" rx="74.2377" ry="29.3315"/>
<text text-anchor="middle" x="2420" y="-390.8" font-family="Times,serif" font-size="14.00">torquebox setup</text>
<text text-anchor="middle" x="2420" y="-374" font-family="Times,serif" font-size="14.00">logrotate</text>
</g>
<!-- torquebox install\n3.0.0&#45;&gt;torquebox setup\nlogrotate -->
<g id="edge11" class="edge"><title>torquebox install\n3.0.0&#45;&gt;torquebox setup\nlogrotate</title>
<path fill="none" stroke="black" d="M2148.12,-467.652C2199.22,-455.259 2272.02,-436.837 2335,-418 2341.88,-415.942 2349.04,-413.686 2356.15,-411.369"/>
<polygon fill="black" stroke="black" points="2357.39,-414.646 2365.79,-408.186 2355.19,-407.999 2357.39,-414.646"/>
</g>
<!-- torquebox setup\nupstart -->
<g id="node17" class="node"><title>torquebox setup\nupstart</title>
<ellipse fill="none" stroke="black" cx="1914" cy="-388" rx="74.2377" ry="29.3315"/>
<text text-anchor="middle" x="1914" y="-390.8" font-family="Times,serif" font-size="14.00">torquebox setup</text>
<text text-anchor="middle" x="1914" y="-374" font-family="Times,serif" font-size="14.00">upstart</text>
</g>
<!-- torquebox install\n3.0.0&#45;&gt;torquebox setup\nupstart -->
<g id="edge12" class="edge"><title>torquebox install\n3.0.0&#45;&gt;torquebox setup\nupstart</title>
<path fill="none" stroke="black" d="M2040.35,-459.28C2017.46,-446.548 1989.09,-430.767 1965.03,-417.386"/>
<polygon fill="black" stroke="black" points="1966.49,-414.189 1956.05,-412.387 1963.08,-420.307 1966.49,-414.189"/>
</g>
<!-- zhdk ci ruby\ninstall -->
<g id="node18" class="node"><title>zhdk ci ruby\ninstall</title>
<ellipse fill="none" stroke="black" cx="1098" cy="-280" rx="60.197" ry="29.3315"/>
<text text-anchor="middle" x="1098" y="-282.8" font-family="Times,serif" font-size="14.00">zhdk ci ruby</text>
<text text-anchor="middle" x="1098" y="-266" font-family="Times,serif" font-size="14.00">install</text>
</g>
<!-- ruby rbenv install -->
<g id="node19" class="node"><title>ruby rbenv install</title>
<ellipse fill="none" stroke="black" cx="1260" cy="-149" rx="79.2379" ry="18"/>
<text text-anchor="middle" x="1260" y="-143.4" font-family="Times,serif" font-size="14.00">ruby rbenv install</text>
</g>
<!-- zhdk ci ruby\ninstall&#45;&gt;ruby rbenv install -->
<g id="edge13" class="edge"><title>zhdk ci ruby\ninstall&#45;&gt;ruby rbenv install</title>
<path fill="none" stroke="black" d="M1128.85,-254.432C1158.26,-231.012 1202.22,-196.012 1231,-173.094"/>
<polygon fill="black" stroke="black" points="1233.41,-175.65 1239.05,-166.683 1229.05,-170.174 1233.41,-175.65"/>
</g>
<!-- zhdk ci ruby\ninstall&#45;&gt;ruby rbenv install\nruby 1.9.3 -->
<g id="edge14" class="edge"><title>zhdk ci ruby\ninstall&#45;&gt;ruby rbenv install\nruby 1.9.3</title>
<path fill="none" stroke="black" d="M1131.49,-255.448C1142.63,-248.715 1155.41,-242.099 1168,-238 1320.9,-188.219 1374.95,-251.327 1528,-202 1543.5,-197.005 1559.25,-189.071 1573.16,-180.89"/>
<polygon fill="black" stroke="black" points="1575.28,-183.694 1582.01,-175.506 1571.64,-177.714 1575.28,-183.694"/>
</g>
<!-- zhdk ci ruby\ngherkin setup\nragel lexer -->
<g id="node20" class="node"><title>zhdk ci ruby\ngherkin setup\nragel lexer</title>
<ellipse fill="none" stroke="black" cx="1098" cy="-149" rx="64.3877" ry="41.0911"/>
<text text-anchor="middle" x="1098" y="-160.2" font-family="Times,serif" font-size="14.00">zhdk ci ruby</text>
<text text-anchor="middle" x="1098" y="-143.4" font-family="Times,serif" font-size="14.00">gherkin setup</text>
<text text-anchor="middle" x="1098" y="-126.6" font-family="Times,serif" font-size="14.00">ragel lexer</text>
</g>
<!-- zhdk ci ruby\ninstall&#45;&gt;zhdk ci ruby\ngherkin setup\nragel lexer -->
<g id="edge15" class="edge"><title>zhdk ci ruby\ninstall&#45;&gt;zhdk ci ruby\ngherkin setup\nragel lexer</title>
<path fill="none" stroke="black" d="M1098,-250.371C1098,-235.864 1098,-217.807 1098,-201.025"/>
<polygon fill="black" stroke="black" points="1101.5,-200.783 1098,-190.783 1094.5,-200.783 1101.5,-200.783"/>
</g>
<!-- zhdk complete&#45;setup -->
<g id="node21" class="node"><title>zhdk complete&#45;setup</title>
<ellipse fill="none" stroke="black" cx="1268" cy="-484" rx="91.3236" ry="18"/>
<text text-anchor="middle" x="1268" y="-478.4" font-family="Times,serif" font-size="14.00">zhdk complete&#45;setup</text>
</g>
<!-- zhdk complete&#45;setup&#45;&gt;jvm open jdk\ninstall -->
<g id="edge16" class="edge"><title>zhdk complete&#45;setup&#45;&gt;jvm open jdk\ninstall</title>
<path fill="none" stroke="black" d="M1349.06,-475.783C1433.92,-466.976 1570.49,-449.247 1685,-418 1691.04,-416.351 1697.27,-414.36 1703.42,-412.203"/>
<polygon fill="black" stroke="black" points="1704.79,-415.427 1712.97,-408.701 1702.38,-408.855 1704.79,-415.427"/>
</g>
<!-- zhdk domina&#45;ci&#45;executor\nsetup -->
<g id="node22" class="node"><title>zhdk domina&#45;ci&#45;executor\nsetup</title>
<ellipse fill="none" stroke="black" cx="483" cy="-388" rx="110.311" ry="29.3315"/>
<text text-anchor="middle" x="483" y="-390.8" font-family="Times,serif" font-size="14.00">zhdk domina&#45;ci&#45;executor</text>
<text text-anchor="middle" x="483" y="-374" font-family="Times,serif" font-size="14.00">setup</text>
</g>
<!-- zhdk complete&#45;setup&#45;&gt;zhdk domina&#45;ci&#45;executor\nsetup -->
<g id="edge17" class="edge"><title>zhdk complete&#45;setup&#45;&gt;zhdk domina&#45;ci&#45;executor\nsetup</title>
<path fill="none" stroke="black" d="M1192.37,-473.944C1052.74,-457.223 753.971,-421.448 592.302,-402.088"/>
<polygon fill="black" stroke="black" points="592.675,-398.608 582.33,-400.894 591.843,-405.558 592.675,-398.608"/>
</g>
<!-- zhdk complete&#45;setup&#45;&gt;database postgresql\ninstall 9.2 -->
<g id="edge18" class="edge"><title>zhdk complete&#45;setup&#45;&gt;database postgresql\ninstall 9.2</title>
<path fill="none" stroke="black" d="M1268,-465.759C1268,-455.136 1268,-441.068 1268,-427.88"/>
<polygon fill="black" stroke="black" points="1271.5,-427.574 1268,-417.574 1264.5,-427.574 1271.5,-427.574"/>
</g>
<!-- database postgresql\nadd superuser -->
<g id="node23" class="node"><title>database postgresql\nadd superuser</title>
<ellipse fill="none" stroke="black" cx="1463" cy="-388" rx="88.3424" ry="29.3315"/>
<text text-anchor="middle" x="1463" y="-390.8" font-family="Times,serif" font-size="14.00">database postgresql</text>
<text text-anchor="middle" x="1463" y="-374" font-family="Times,serif" font-size="14.00">add superuser</text>
</g>
<!-- zhdk complete&#45;setup&#45;&gt;database postgresql\nadd superuser -->
<g id="edge19" class="edge"><title>zhdk complete&#45;setup&#45;&gt;database postgresql\nadd superuser</title>
<path fill="none" stroke="black" d="M1301.08,-467.054C1329.39,-453.409 1370.81,-433.442 1404.67,-417.12"/>
<polygon fill="black" stroke="black" points="1406.51,-420.116 1414,-412.621 1403.47,-413.81 1406.51,-420.116"/>
</g>
<!-- ci tightvnc\ninstall -->
<g id="node24" class="node"><title>ci tightvnc\ninstall</title>
<ellipse fill="none" stroke="black" cx="1623" cy="-388" rx="53.0661" ry="29.3315"/>
<text text-anchor="middle" x="1623" y="-390.8" font-family="Times,serif" font-size="14.00">ci tightvnc</text>
<text text-anchor="middle" x="1623" y="-374" font-family="Times,serif" font-size="14.00">install</text>
</g>
<!-- zhdk complete&#45;setup&#45;&gt;ci tightvnc\ninstall -->
<g id="edge20" class="edge"><title>zhdk complete&#45;setup&#45;&gt;ci tightvnc\ninstall</title>
<path fill="none" stroke="black" d="M1336.38,-472.022C1396.28,-461.409 1485.2,-443.223 1560,-418 1564.87,-416.359 1569.86,-414.46 1574.8,-412.434"/>
<polygon fill="black" stroke="black" points="1576.38,-415.565 1584.2,-408.416 1573.63,-409.128 1576.38,-415.565"/>
</g>
<!-- zhdk complete&#45;setup&#45;&gt;invoke as user -->
<g id="edge21" class="edge"><title>zhdk complete&#45;setup&#45;&gt;invoke as user</title>
<path fill="none" stroke="black" d="M1177.54,-481.375C961.875,-476.814 430.393,-461.274 363,-418 323.882,-392.882 303.521,-339.962 294.338,-307.744"/>
<polygon fill="black" stroke="black" points="297.715,-306.822 291.74,-298.072 290.955,-308.638 297.715,-306.822"/>
</g>
<!-- zhdk complete&#45;setup&#45;as&#45;user -->
<g id="node25" class="node"><title>zhdk complete&#45;setup&#45;as&#45;user</title>
<ellipse fill="none" stroke="black" cx="1040" cy="-388" rx="121.171" ry="18"/>
<text text-anchor="middle" x="1040" y="-382.4" font-family="Times,serif" font-size="14.00">zhdk complete&#45;setup&#45;as&#45;user</text>
</g>
<!-- zhdk complete&#45;setup&#45;&gt;zhdk complete&#45;setup&#45;as&#45;user -->
<g id="edge22" class="edge"><title>zhdk complete&#45;setup&#45;&gt;zhdk complete&#45;setup&#45;as&#45;user</title>
<path fill="none" stroke="black" d="M1230.61,-467.583C1191.73,-451.555 1130.73,-426.407 1088.25,-408.891"/>
<polygon fill="black" stroke="black" points="1089.52,-405.631 1078.94,-405.055 1086.85,-412.103 1089.52,-405.631"/>
</g>
<!-- zhdk domina&#45;ci&#45;executor\nsetup&#45;&gt;invoke as user -->
<g id="edge30" class="edge"><title>zhdk domina&#45;ci&#45;executor\nsetup&#45;&gt;invoke as user</title>
<path fill="none" stroke="black" d="M435.672,-361.418C413.58,-349.463 386.933,-335.024 363,-322 350.64,-315.274 337.145,-307.905 325.053,-301.293"/>
<polygon fill="black" stroke="black" points="326.575,-298.135 316.122,-296.407 323.215,-304.277 326.575,-298.135"/>
</g>
<!-- zhdk domina&#45;ci&#45;executor\nas&#45;domina&#45;setup -->
<g id="node30" class="node"><title>zhdk domina&#45;ci&#45;executor\nas&#45;domina&#45;setup</title>
<ellipse fill="none" stroke="black" cx="483" cy="-280" rx="110.311" ry="29.3315"/>
<text text-anchor="middle" x="483" y="-282.8" font-family="Times,serif" font-size="14.00">zhdk domina&#45;ci&#45;executor</text>
<text text-anchor="middle" x="483" y="-266" font-family="Times,serif" font-size="14.00">as&#45;domina&#45;setup</text>
</g>
<!-- zhdk domina&#45;ci&#45;executor\nsetup&#45;&gt;zhdk domina&#45;ci&#45;executor\nas&#45;domina&#45;setup -->
<g id="edge31" class="edge"><title>zhdk domina&#45;ci&#45;executor\nsetup&#45;&gt;zhdk domina&#45;ci&#45;executor\nas&#45;domina&#45;setup</title>
<path fill="none" stroke="black" d="M483,-358.315C483,-346.531 483,-332.7 483,-320.019"/>
<polygon fill="black" stroke="black" points="486.5,-319.708 483,-309.708 479.5,-319.708 486.5,-319.708"/>
</g>
<!-- zhdk ssh add&#45;keys -->
<g id="node26" class="node"><title>zhdk ssh add&#45;keys</title>
<ellipse fill="none" stroke="black" cx="771" cy="-280" rx="81.2634" ry="18"/>
<text text-anchor="middle" x="771" y="-274.4" font-family="Times,serif" font-size="14.00">zhdk ssh add&#45;keys</text>
</g>
<!-- zhdk complete&#45;setup&#45;as&#45;user&#45;&gt;zhdk ssh add&#45;keys -->
<g id="edge23" class="edge"><title>zhdk complete&#45;setup&#45;as&#45;user&#45;&gt;zhdk ssh add&#45;keys</title>
<path fill="none" stroke="black" d="M993.918,-371.214C957.771,-358.582 906.333,-340.053 862,-322 845.919,-315.451 828.485,-307.748 813.221,-300.797"/>
<polygon fill="black" stroke="black" points="814.577,-297.568 804.028,-296.583 811.66,-303.932 814.577,-297.568"/>
</g>
<!-- ci chromedriver\ninstall -->
<g id="node27" class="node"><title>ci chromedriver\ninstall</title>
<ellipse fill="none" stroke="black" cx="945" cy="-280" rx="73.8819" ry="29.3315"/>
<text text-anchor="middle" x="945" y="-282.8" font-family="Times,serif" font-size="14.00">ci chromedriver</text>
<text text-anchor="middle" x="945" y="-266" font-family="Times,serif" font-size="14.00">install</text>
</g>
<!-- zhdk complete&#45;setup&#45;as&#45;user&#45;&gt;ci chromedriver\ninstall -->
<g id="edge24" class="edge"><title>zhdk complete&#45;setup&#45;as&#45;user&#45;&gt;ci chromedriver\ninstall</title>
<path fill="none" stroke="black" d="M1024.74,-369.969C1011.61,-355.324 992.268,-333.741 975.92,-315.5"/>
<polygon fill="black" stroke="black" points="978.405,-313.028 969.124,-307.917 973.192,-317.7 978.405,-313.028"/>
</g>
<!-- zhdk complete&#45;setup&#45;as&#45;user&#45;&gt;zhdk ci ruby\ninstall -->
<g id="edge25" class="edge"><title>zhdk complete&#45;setup&#45;as&#45;user&#45;&gt;zhdk ci ruby\ninstall</title>
<path fill="none" stroke="black" d="M1049.32,-369.969C1057.01,-355.916 1068.19,-335.473 1077.9,-317.726"/>
<polygon fill="black" stroke="black" points="1081.09,-319.193 1082.82,-308.74 1074.95,-315.832 1081.09,-319.193"/>
</g>
<!-- ci phantomjs\ninstall -->
<g id="node28" class="node"><title>ci phantomjs\ninstall</title>
<ellipse fill="none" stroke="black" cx="1239" cy="-280" rx="62.269" ry="29.3315"/>
<text text-anchor="middle" x="1239" y="-282.8" font-family="Times,serif" font-size="14.00">ci phantomjs</text>
<text text-anchor="middle" x="1239" y="-266" font-family="Times,serif" font-size="14.00">install</text>
</g>
<!-- zhdk complete&#45;setup&#45;as&#45;user&#45;&gt;ci phantomjs\ninstall -->
<g id="edge26" class="edge"><title>zhdk complete&#45;setup&#45;as&#45;user&#45;&gt;ci phantomjs\ninstall</title>
<path fill="none" stroke="black" d="M1073.1,-370.565C1098.86,-357.657 1135.4,-339.072 1167,-322 1175.09,-317.631 1183.62,-312.89 1191.88,-308.233"/>
<polygon fill="black" stroke="black" points="1193.72,-311.212 1200.69,-303.235 1190.26,-305.123 1193.72,-311.212"/>
</g>
<!-- ci tightvnc\nuser setup -->
<g id="node29" class="node"><title>ci tightvnc\nuser setup</title>
<ellipse fill="none" stroke="black" cx="1373" cy="-280" rx="53.0661" ry="29.3315"/>
<text text-anchor="middle" x="1373" y="-282.8" font-family="Times,serif" font-size="14.00">ci tightvnc</text>
<text text-anchor="middle" x="1373" y="-266" font-family="Times,serif" font-size="14.00">user setup</text>
</g>
<!-- zhdk complete&#45;setup&#45;as&#45;user&#45;&gt;ci tightvnc\nuser setup -->
<g id="edge27" class="edge"><title>zhdk complete&#45;setup&#45;as&#45;user&#45;&gt;ci tightvnc\nuser setup</title>
<path fill="none" stroke="black" d="M1104.57,-372.666C1178.29,-356.108 1291.18,-330.104 1310,-322 1317.93,-318.587 1325.96,-314.202 1333.52,-309.575"/>
<polygon fill="black" stroke="black" points="1335.59,-312.404 1342.14,-304.075 1331.83,-306.503 1335.59,-312.404"/>
</g>
<!-- zhdk ssh add&#45;keys&#45;&gt;ssh download\nand add to\nauthorized\nkeys -->
<g id="edge32" class="edge"><title>zhdk ssh add&#45;keys&#45;&gt;ssh download\nand add to\nauthorized\nkeys</title>
<path fill="none" stroke="black" d="M753.241,-262.4C735.495,-245.811 707.389,-219.537 682.811,-196.563"/>
<polygon fill="black" stroke="black" points="685.008,-193.825 675.312,-189.553 680.227,-198.938 685.008,-193.825"/>
</g>
<!-- setup scripts -->
<g id="node33" class="node"><title>setup scripts</title>
<ellipse fill="none" stroke="black" cx="776" cy="-149" rx="59.0716" ry="18"/>
<text text-anchor="middle" x="776" y="-143.4" font-family="Times,serif" font-size="14.00">setup scripts</text>
</g>
<!-- zhdk ssh add&#45;keys&#45;&gt;setup scripts -->
<g id="edge33" class="edge"><title>zhdk ssh add&#45;keys&#45;&gt;setup scripts</title>
<path fill="none" stroke="black" d="M771.664,-261.87C772.501,-240.281 773.949,-202.912 774.94,-177.352"/>
<polygon fill="black" stroke="black" points="778.443,-177.329 775.333,-167.201 771.449,-177.058 778.443,-177.329"/>
</g>
<!-- ci domina&#45;ci&#45;executor\ninstall -->
<g id="node31" class="node"><title>ci domina&#45;ci&#45;executor\ninstall</title>
<ellipse fill="none" stroke="black" cx="301" cy="-149" rx="98.1629" ry="29.3315"/>
<text text-anchor="middle" x="301" y="-151.8" font-family="Times,serif" font-size="14.00">ci domina&#45;ci&#45;executor</text>
<text text-anchor="middle" x="301" y="-135" font-family="Times,serif" font-size="14.00">install</text>
</g>
<!-- zhdk domina&#45;ci&#45;executor\nas&#45;domina&#45;setup&#45;&gt;ci domina&#45;ci&#45;executor\ninstall -->
<g id="edge28" class="edge"><title>zhdk domina&#45;ci&#45;executor\nas&#45;domina&#45;setup&#45;&gt;ci domina&#45;ci&#45;executor\ninstall</title>
<path fill="none" stroke="black" d="M445.289,-252.271C416.548,-231.899 376.855,-203.766 346.375,-182.162"/>
<polygon fill="black" stroke="black" points="348.222,-179.18 338.039,-176.253 344.174,-184.891 348.222,-179.18"/>
</g>
<!-- jvm leiningen\ninstall -->
<g id="node32" class="node"><title>jvm leiningen\ninstall</title>
<ellipse fill="none" stroke="black" cx="483" cy="-149" rx="66.0402" ry="29.3315"/>
<text text-anchor="middle" x="483" y="-151.8" font-family="Times,serif" font-size="14.00">jvm leiningen</text>
<text text-anchor="middle" x="483" y="-135" font-family="Times,serif" font-size="14.00">install</text>
</g>
<!-- zhdk domina&#45;ci&#45;executor\nas&#45;domina&#45;setup&#45;&gt;jvm leiningen\ninstall -->
<g id="edge29" class="edge"><title>zhdk domina&#45;ci&#45;executor\nas&#45;domina&#45;setup&#45;&gt;jvm leiningen\ninstall</title>
<path fill="none" stroke="black" d="M483,-250.371C483,-232.25 483,-208.591 483,-188.794"/>
<polygon fill="black" stroke="black" points="486.5,-188.549 483,-178.549 479.5,-188.549 486.5,-188.549"/>
</g>
</g>
</svg>
