<?xml version="1.0" encoding="UTF-8" standalone="no"?>
<!DOCTYPE svg PUBLIC "-//W3C//DTD SVG 1.1//EN"
 "http://www.w3.org/Graphics/SVG/1.1/DTD/svg11.dtd">
<!-- Generated by graphviz version 2.30.1 (20131017.1317)
 -->
<!-- Title: Debuntu call graph Pages: 1 -->
<svg width="2370pt" height="522pt"
 viewBox="0.00 0.00 2370.00 522.00" xmlns="http://www.w3.org/2000/svg" xmlns:xlink="http://www.w3.org/1999/xlink">
<g id="graph0" class="graph" transform="scale(1 1) rotate(0) translate(4 518)">
<title>Debuntu call graph</title>
<polygon fill="white" stroke="white" points="-4,5 -4,-518 2367,-518 2367,5 -4,5"/>
<!-- database postgresql\ninstall 9.2 -->
<g id="node1" class="node"><title>database postgresql\ninstall 9.2</title>
<ellipse fill="none" stroke="black" cx="1267" cy="-388" rx="88.3424" ry="29.3315"/>
<text text-anchor="middle" x="1267" y="-390.8" font-family="Times,serif" font-size="14.00">database postgresql</text>
<text text-anchor="middle" x="1267" y="-374" font-family="Times,serif" font-size="14.00">install 9.2</text>
</g>
<!-- database postgresql\nadd pgdg apt\nrepository -->
<g id="node2" class="node"><title>database postgresql\nadd pgdg apt\nrepository</title>
<ellipse fill="none" stroke="black" cx="1577" cy="-280" rx="88.3424" ry="41.0911"/>
<text text-anchor="middle" x="1577" y="-291.2" font-family="Times,serif" font-size="14.00">database postgresql</text>
<text text-anchor="middle" x="1577" y="-274.4" font-family="Times,serif" font-size="14.00">add pgdg apt</text>
<text text-anchor="middle" x="1577" y="-257.6" font-family="Times,serif" font-size="14.00">repository</text>
</g>
<!-- database postgresql\ninstall 9.2&#45;&gt;database postgresql\nadd pgdg apt\nrepository -->
<g id="edge1" class="edge"><title>database postgresql\ninstall 9.2&#45;&gt;database postgresql\nadd pgdg apt\nrepository</title>
<path fill="none" stroke="black" d="M1331.22,-367.661C1388.27,-350.42 1464.79,-327.137 1479,-322 1487.13,-319.062 1495.56,-315.825 1503.92,-312.498"/>
<polygon fill="black" stroke="black" points="1505.34,-315.7 1513.31,-308.715 1502.73,-309.208 1505.34,-315.7"/>
</g>
<!-- invoke as user -->
<g id="node3" class="node"><title>invoke as user</title>
<ellipse fill="none" stroke="black" cx="288" cy="-280" rx="65.9227" ry="18"/>
<text text-anchor="middle" x="288" y="-274.4" font-family="Times,serif" font-size="14.00">invoke as user</text>
</g>
<!-- meta write functions\nfor sourcing -->
<g id="node4" class="node"><title>meta write functions\nfor sourcing</title>
<ellipse fill="none" stroke="black" cx="92" cy="-149" rx="92.527" ry="29.3315"/>
<text text-anchor="middle" x="92" y="-151.8" font-family="Times,serif" font-size="14.00">meta write functions</text>
<text text-anchor="middle" x="92" y="-135" font-family="Times,serif" font-size="14.00">for sourcing</text>
</g>
<!-- invoke as user&#45;&gt;meta write functions\nfor sourcing -->
<g id="edge2" class="edge"><title>invoke as user&#45;&gt;meta write functions\nfor sourcing</title>
<path fill="none" stroke="black" d="M263.967,-263.182C233.175,-242.916 179.093,-207.322 139.783,-181.449"/>
<polygon fill="black" stroke="black" points="141.411,-178.331 131.134,-175.756 137.563,-184.178 141.411,-178.331"/>
</g>
<!-- jvm open jdk\ninstall -->
<g id="node5" class="node"><title>jvm open jdk\ninstall</title>
<ellipse fill="none" stroke="black" cx="1757" cy="-388" rx="63.3349" ry="29.3315"/>
<text text-anchor="middle" x="1757" y="-390.8" font-family="Times,serif" font-size="14.00">jvm open jdk</text>
<text text-anchor="middle" x="1757" y="-374" font-family="Times,serif" font-size="14.00">install</text>
</g>
<!-- system is ubuntu -->
<g id="node6" class="node"><title>system is ubuntu</title>
<ellipse fill="none" stroke="black" cx="1819" cy="-280" rx="75.4355" ry="18"/>
<text text-anchor="middle" x="1819" y="-274.4" font-family="Times,serif" font-size="14.00">system is ubuntu</text>
</g>
<!-- jvm open jdk\ninstall&#45;&gt;system is ubuntu -->
<g id="edge3" class="edge"><title>jvm open jdk\ninstall&#45;&gt;system is ubuntu</title>
<path fill="none" stroke="black" d="M1773.13,-359.426C1782.61,-343.222 1794.51,-322.863 1803.82,-306.949"/>
<polygon fill="black" stroke="black" points="1806.94,-308.557 1808.96,-298.158 1800.89,-305.023 1806.94,-308.557"/>
</g>
<!-- ruby rbenv install\njruby 1.7.4 -->
<g id="node7" class="node"><title>ruby rbenv install\njruby 1.7.4</title>
<ellipse fill="none" stroke="black" cx="1152" cy="-149" rx="81.2202" ry="29.3315"/>
<text text-anchor="middle" x="1152" y="-151.8" font-family="Times,serif" font-size="14.00">ruby rbenv install</text>
<text text-anchor="middle" x="1152" y="-135" font-family="Times,serif" font-size="14.00">jruby 1.7.4</text>
</g>
<!-- ruby rbenv install\nruby -->
<g id="node8" class="node"><title>ruby rbenv install\nruby</title>
<ellipse fill="none" stroke="black" cx="1152" cy="-30" rx="81.2202" ry="29.3315"/>
<text text-anchor="middle" x="1152" y="-32.8" font-family="Times,serif" font-size="14.00">ruby rbenv install</text>
<text text-anchor="middle" x="1152" y="-16" font-family="Times,serif" font-size="14.00">ruby</text>
</g>
<!-- ruby rbenv install\njruby 1.7.4&#45;&gt;ruby rbenv install\nruby -->
<g id="edge4" class="edge"><title>ruby rbenv install\njruby 1.7.4&#45;&gt;ruby rbenv install\nruby</title>
<path fill="none" stroke="black" d="M1152,-119.379C1152,-104.506 1152,-86.1109 1152,-69.9607"/>
<polygon fill="black" stroke="black" points="1155.5,-69.7314 1152,-59.7314 1148.5,-69.7315 1155.5,-69.7314"/>
</g>
<!-- ruby rbenv install\nruby 1.9.3 -->
<g id="node9" class="node"><title>ruby rbenv install\nruby 1.9.3</title>
<ellipse fill="none" stroke="black" cx="972" cy="-149" rx="81.2202" ry="29.3315"/>
<text text-anchor="middle" x="972" y="-151.8" font-family="Times,serif" font-size="14.00">ruby rbenv install</text>
<text text-anchor="middle" x="972" y="-135" font-family="Times,serif" font-size="14.00">ruby 1.9.3</text>
</g>
<!-- ruby rbenv install\nruby 1.9.3&#45;&gt;ruby rbenv install\nruby -->
<g id="edge5" class="edge"><title>ruby rbenv install\nruby 1.9.3&#45;&gt;ruby rbenv install\nruby</title>
<path fill="none" stroke="black" d="M1010.61,-122.901C1038.26,-104.933 1075.62,-80.6447 1105,-61.5498"/>
<polygon fill="black" stroke="black" points="1106.97,-64.4424 1113.45,-56.0579 1103.16,-58.5733 1106.97,-64.4424"/>
</g>
<!-- ruby rbenv install\nruby 2.0.0 -->
<g id="node10" class="node"><title>ruby rbenv install\nruby 2.0.0</title>
<ellipse fill="none" stroke="black" cx="1332" cy="-149" rx="81.2202" ry="29.3315"/>
<text text-anchor="middle" x="1332" y="-151.8" font-family="Times,serif" font-size="14.00">ruby rbenv install</text>
<text text-anchor="middle" x="1332" y="-135" font-family="Times,serif" font-size="14.00">ruby 2.0.0</text>
</g>
<!-- ruby rbenv install\nruby 2.0.0&#45;&gt;ruby rbenv install\nruby -->
<g id="edge6" class="edge"><title>ruby rbenv install\nruby 2.0.0&#45;&gt;ruby rbenv install\nruby</title>
<path fill="none" stroke="black" d="M1293.39,-122.901C1265.74,-104.933 1228.38,-80.6447 1199,-61.5498"/>
<polygon fill="black" stroke="black" points="1200.84,-58.5733 1190.55,-56.0579 1197.03,-64.4424 1200.84,-58.5733"/>
</g>
<!-- ssh download\nand add to\nauthorized\nkeys -->
<g id="node11" class="node"><title>ssh download\nand add to\nauthorized\nkeys</title>
<ellipse fill="none" stroke="black" cx="1497" cy="-149" rx="65.2282" ry="53.3494"/>
<text text-anchor="middle" x="1497" y="-168.6" font-family="Times,serif" font-size="14.00">ssh download</text>
<text text-anchor="middle" x="1497" y="-151.8" font-family="Times,serif" font-size="14.00">and add to</text>
<text text-anchor="middle" x="1497" y="-135" font-family="Times,serif" font-size="14.00">authorized</text>
<text text-anchor="middle" x="1497" y="-118.2" font-family="Times,serif" font-size="14.00">keys</text>
</g>
<!-- ssh add to authorized\nkeys -->
<g id="node12" class="node"><title>ssh add to authorized\nkeys</title>
<ellipse fill="none" stroke="black" cx="1497" cy="-30" rx="95.247" ry="29.3315"/>
<text text-anchor="middle" x="1497" y="-32.8" font-family="Times,serif" font-size="14.00">ssh add to authorized</text>
<text text-anchor="middle" x="1497" y="-16" font-family="Times,serif" font-size="14.00">keys</text>
</g>
<!-- ssh download\nand add to\nauthorized\nkeys&#45;&gt;ssh add to authorized\nkeys -->
<g id="edge7" class="edge"><title>ssh download\nand add to\nauthorized\nkeys&#45;&gt;ssh add to authorized\nkeys</title>
<path fill="none" stroke="black" d="M1497,-95.6598C1497,-86.9325 1497,-78.0204 1497,-69.7119"/>
<polygon fill="black" stroke="black" points="1500.5,-69.5699 1497,-59.57 1493.5,-69.57 1500.5,-69.5699"/>
</g>
<!-- torquebox install\n3.0.0 -->
<g id="node13" class="node"><title>torquebox install\n3.0.0</title>
<ellipse fill="none" stroke="black" cx="1952" cy="-484" rx="78.1885" ry="29.3315"/>
<text text-anchor="middle" x="1952" y="-486.8" font-family="Times,serif" font-size="14.00">torquebox install</text>
<text text-anchor="middle" x="1952" y="-470" font-family="Times,serif" font-size="14.00">3.0.0</text>
</g>
<!-- torquebox install\n3.0.0&#45;&gt;system is ubuntu -->
<g id="edge8" class="edge"><title>torquebox install\n3.0.0&#45;&gt;system is ubuntu</title>
<path fill="none" stroke="black" d="M1911.54,-458.801C1896.17,-447.943 1879.59,-433.968 1868,-418 1843.55,-384.317 1830.28,-337.241 1823.92,-307.964"/>
<polygon fill="black" stroke="black" points="1827.32,-307.133 1821.88,-298.042 1820.46,-308.541 1827.32,-307.133"/>
</g>
<!-- torquebox install\n3.0.0&#45;&gt;jvm open jdk\ninstall -->
<g id="edge9" class="edge"><title>torquebox install\n3.0.0&#45;&gt;jvm open jdk\ninstall</title>
<path fill="none" stroke="black" d="M1904.8,-460.245C1876.01,-446.37 1839.18,-428.613 1809.48,-414.297"/>
<polygon fill="black" stroke="black" points="1810.63,-410.969 1800.11,-409.78 1807.59,-417.275 1810.63,-410.969"/>
</g>
<!-- torquebox setup\nenv loader -->
<g id="node14" class="node"><title>torquebox setup\nenv loader</title>
<ellipse fill="none" stroke="black" cx="2120" cy="-388" rx="74.2377" ry="29.3315"/>
<text text-anchor="middle" x="2120" y="-390.8" font-family="Times,serif" font-size="14.00">torquebox setup</text>
<text text-anchor="middle" x="2120" y="-374" font-family="Times,serif" font-size="14.00">env loader</text>
</g>
<!-- torquebox install\n3.0.0&#45;&gt;torquebox setup\nenv loader -->
<g id="edge10" class="edge"><title>torquebox install\n3.0.0&#45;&gt;torquebox setup\nenv loader</title>
<path fill="none" stroke="black" d="M1994.39,-459.28C2017.15,-446.548 2045.35,-430.767 2069.27,-417.386"/>
<polygon fill="black" stroke="black" points="2071.18,-420.324 2078.2,-412.387 2067.77,-414.215 2071.18,-420.324"/>
</g>
<!-- torquebox setup\nlogrotate -->
<g id="node15" class="node"><title>torquebox setup\nlogrotate</title>
<ellipse fill="none" stroke="black" cx="2288" cy="-388" rx="74.2377" ry="29.3315"/>
<text text-anchor="middle" x="2288" y="-390.8" font-family="Times,serif" font-size="14.00">torquebox setup</text>
<text text-anchor="middle" x="2288" y="-374" font-family="Times,serif" font-size="14.00">logrotate</text>
</g>
<!-- torquebox install\n3.0.0&#45;&gt;torquebox setup\nlogrotate -->
<g id="edge11" class="edge"><title>torquebox install\n3.0.0&#45;&gt;torquebox setup\nlogrotate</title>
<path fill="none" stroke="black" d="M2017.12,-467.566C2068.01,-455.161 2140.37,-436.765 2203,-418 2209.88,-415.939 2217.04,-413.68 2224.15,-411.362"/>
<polygon fill="black" stroke="black" points="2225.39,-414.639 2233.78,-408.178 2223.19,-407.992 2225.39,-414.639"/>
</g>
<!-- torquebox setup\nupstart -->
<g id="node16" class="node"><title>torquebox setup\nupstart</title>
<ellipse fill="none" stroke="black" cx="1952" cy="-388" rx="74.2377" ry="29.3315"/>
<text text-anchor="middle" x="1952" y="-390.8" font-family="Times,serif" font-size="14.00">torquebox setup</text>
<text text-anchor="middle" x="1952" y="-374" font-family="Times,serif" font-size="14.00">upstart</text>
</g>
<!-- torquebox install\n3.0.0&#45;&gt;torquebox setup\nupstart -->
<g id="edge12" class="edge"><title>torquebox install\n3.0.0&#45;&gt;torquebox setup\nupstart</title>
<path fill="none" stroke="black" d="M1952,-454.542C1952,-446.153 1952,-436.825 1952,-427.899"/>
<polygon fill="black" stroke="black" points="1955.5,-427.686 1952,-417.686 1948.5,-427.686 1955.5,-427.686"/>
</g>
<!-- zhdk ci ruby\ninstall -->
<g id="node17" class="node"><title>zhdk ci ruby\ninstall</title>
<ellipse fill="none" stroke="black" cx="794" cy="-280" rx="60.197" ry="29.3315"/>
<text text-anchor="middle" x="794" y="-282.8" font-family="Times,serif" font-size="14.00">zhdk ci ruby</text>
<text text-anchor="middle" x="794" y="-266" font-family="Times,serif" font-size="14.00">install</text>
</g>
<!-- ruby rbenv install -->
<g id="node18" class="node"><title>ruby rbenv install</title>
<ellipse fill="none" stroke="black" cx="794" cy="-149" rx="79.2379" ry="18"/>
<text text-anchor="middle" x="794" y="-143.4" font-family="Times,serif" font-size="14.00">ruby rbenv install</text>
</g>
<!-- zhdk ci ruby\ninstall&#45;&gt;ruby rbenv install -->
<g id="edge13" class="edge"><title>zhdk ci ruby\ninstall&#45;&gt;ruby rbenv install</title>
<path fill="none" stroke="black" d="M794,-250.371C794,-228.527 794,-198.635 794,-177.163"/>
<polygon fill="black" stroke="black" points="797.5,-177.08 794,-167.08 790.5,-177.08 797.5,-177.08"/>
</g>
<!-- zhdk ci ruby\ninstall&#45;&gt;ruby rbenv install\nruby 1.9.3 -->
<g id="edge14" class="edge"><title>zhdk ci ruby\ninstall&#45;&gt;ruby rbenv install\nruby 1.9.3</title>
<path fill="none" stroke="black" d="M827.063,-255.038C855.674,-234.304 897.254,-204.17 928.548,-181.49"/>
<polygon fill="black" stroke="black" points="930.632,-184.303 936.675,-175.601 926.524,-178.635 930.632,-184.303"/>
</g>
<!-- zhdk ci ruby\ngherkin setup\nragel lexer -->
<g id="node19" class="node"><title>zhdk ci ruby\ngherkin setup\nragel lexer</title>
<ellipse fill="none" stroke="black" cx="632" cy="-149" rx="64.3877" ry="41.0911"/>
<text text-anchor="middle" x="632" y="-160.2" font-family="Times,serif" font-size="14.00">zhdk ci ruby</text>
<text text-anchor="middle" x="632" y="-143.4" font-family="Times,serif" font-size="14.00">gherkin setup</text>
<text text-anchor="middle" x="632" y="-126.6" font-family="Times,serif" font-size="14.00">ragel lexer</text>
</g>
<!-- zhdk ci ruby\ninstall&#45;&gt;zhdk ci ruby\ngherkin setup\nragel lexer -->
<g id="edge15" class="edge"><title>zhdk ci ruby\ninstall&#45;&gt;zhdk ci ruby\ngherkin setup\nragel lexer</title>
<path fill="none" stroke="black" d="M763.148,-254.432C739.603,-235.684 706.739,-209.515 679.8,-188.063"/>
<polygon fill="black" stroke="black" points="681.65,-185.062 671.647,-181.57 677.289,-190.538 681.65,-185.062"/>
</g>
<!-- zhdk complete&#45;setup -->
<g id="node20" class="node"><title>zhdk complete&#45;setup</title>
<ellipse fill="none" stroke="black" cx="1267" cy="-484" rx="91.3236" ry="18"/>
<text text-anchor="middle" x="1267" y="-478.4" font-family="Times,serif" font-size="14.00">zhdk complete&#45;setup</text>
</g>
<!-- zhdk complete&#45;setup&#45;&gt;jvm open jdk\ninstall -->
<g id="edge16" class="edge"><title>zhdk complete&#45;setup&#45;&gt;jvm open jdk\ninstall</title>
<path fill="none" stroke="black" d="M1348.06,-475.783C1432.92,-466.976 1569.49,-449.247 1684,-418 1690.04,-416.351 1696.27,-414.36 1702.42,-412.203"/>
<polygon fill="black" stroke="black" points="1703.79,-415.427 1711.97,-408.701 1701.38,-408.855 1703.79,-415.427"/>
</g>
<!-- zhdk domina&#45;ci&#45;executor\nsetup -->
<g id="node21" class="node"><title>zhdk domina&#45;ci&#45;executor\nsetup</title>
<ellipse fill="none" stroke="black" cx="483" cy="-388" rx="110.311" ry="29.3315"/>
<text text-anchor="middle" x="483" y="-390.8" font-family="Times,serif" font-size="14.00">zhdk domina&#45;ci&#45;executor</text>
<text text-anchor="middle" x="483" y="-374" font-family="Times,serif" font-size="14.00">setup</text>
</g>
<!-- zhdk complete&#45;setup&#45;&gt;zhdk domina&#45;ci&#45;executor\nsetup -->
<g id="edge17" class="edge"><title>zhdk complete&#45;setup&#45;&gt;zhdk domina&#45;ci&#45;executor\nsetup</title>
<path fill="none" stroke="black" d="M1191.11,-473.901C1051.56,-457.169 753.743,-421.462 592.369,-402.113"/>
<polygon fill="black" stroke="black" points="592.76,-398.635 582.415,-400.92 591.927,-405.585 592.76,-398.635"/>
</g>
<!-- zhdk complete&#45;setup&#45;&gt;database postgresql\ninstall 9.2 -->
<g id="edge18" class="edge"><title>zhdk complete&#45;setup&#45;&gt;database postgresql\ninstall 9.2</title>
<path fill="none" stroke="black" d="M1267,-465.759C1267,-455.136 1267,-441.068 1267,-427.88"/>
<polygon fill="black" stroke="black" points="1270.5,-427.574 1267,-417.574 1263.5,-427.574 1270.5,-427.574"/>
</g>
<!-- database postgresql\nadd superuser -->
<g id="node22" class="node"><title>database postgresql\nadd superuser</title>
<ellipse fill="none" stroke="black" cx="1462" cy="-388" rx="88.3424" ry="29.3315"/>
<text text-anchor="middle" x="1462" y="-390.8" font-family="Times,serif" font-size="14.00">database postgresql</text>
<text text-anchor="middle" x="1462" y="-374" font-family="Times,serif" font-size="14.00">add superuser</text>
</g>
<!-- zhdk complete&#45;setup&#45;&gt;database postgresql\nadd superuser -->
<g id="edge19" class="edge"><title>zhdk complete&#45;setup&#45;&gt;database postgresql\nadd superuser</title>
<path fill="none" stroke="black" d="M1300.08,-467.054C1328.39,-453.409 1369.81,-433.442 1403.67,-417.12"/>
<polygon fill="black" stroke="black" points="1405.51,-420.116 1413,-412.621 1402.47,-413.81 1405.51,-420.116"/>
</g>
<!-- ci tightvnc\ninstall -->
<g id="node23" class="node"><title>ci tightvnc\ninstall</title>
<ellipse fill="none" stroke="black" cx="1622" cy="-388" rx="53.0661" ry="29.3315"/>
<text text-anchor="middle" x="1622" y="-390.8" font-family="Times,serif" font-size="14.00">ci tightvnc</text>
<text text-anchor="middle" x="1622" y="-374" font-family="Times,serif" font-size="14.00">install</text>
</g>
<!-- zhdk complete&#45;setup&#45;&gt;ci tightvnc\ninstall -->
<g id="edge20" class="edge"><title>zhdk complete&#45;setup&#45;&gt;ci tightvnc\ninstall</title>
<path fill="none" stroke="black" d="M1335.38,-472.022C1395.28,-461.409 1484.2,-443.223 1559,-418 1563.87,-416.359 1568.86,-414.46 1573.8,-412.434"/>
<polygon fill="black" stroke="black" points="1575.38,-415.565 1583.2,-408.416 1572.63,-409.128 1575.38,-415.565"/>
</g>
<!-- zhdk complete&#45;setup&#45;&gt;invoke as user -->
<g id="edge21" class="edge"><title>zhdk complete&#45;setup&#45;&gt;invoke as user</title>
<path fill="none" stroke="black" d="M1176.64,-481.369C961.213,-476.796 430.318,-461.229 363,-418 323.883,-392.88 303.522,-339.961 294.339,-307.743"/>
<polygon fill="black" stroke="black" points="297.715,-306.821 291.74,-298.072 290.955,-308.637 297.715,-306.821"/>
</g>
<!-- zhdk complete&#45;setup&#45;as&#45;user -->
<g id="node24" class="node"><title>zhdk complete&#45;setup&#45;as&#45;user</title>
<ellipse fill="none" stroke="black" cx="1039" cy="-388" rx="121.171" ry="18"/>
<text text-anchor="middle" x="1039" y="-382.4" font-family="Times,serif" font-size="14.00">zhdk complete&#45;setup&#45;as&#45;user</text>
</g>
<!-- zhdk complete&#45;setup&#45;&gt;zhdk complete&#45;setup&#45;as&#45;user -->
<g id="edge22" class="edge"><title>zhdk complete&#45;setup&#45;&gt;zhdk complete&#45;setup&#45;as&#45;user</title>
<path fill="none" stroke="black" d="M1229.61,-467.583C1190.73,-451.555 1129.73,-426.407 1087.25,-408.891"/>
<polygon fill="black" stroke="black" points="1088.52,-405.631 1077.94,-405.055 1085.85,-412.103 1088.52,-405.631"/>
</g>
<!-- zhdk domina&#45;ci&#45;executor\nsetup&#45;&gt;invoke as user -->
<g id="edge30" class="edge"><title>zhdk domina&#45;ci&#45;executor\nsetup&#45;&gt;invoke as user</title>
<path fill="none" stroke="black" d="M435.672,-361.418C413.58,-349.463 386.933,-335.024 363,-322 350.64,-315.274 337.145,-307.905 325.053,-301.293"/>
<polygon fill="black" stroke="black" points="326.575,-298.135 316.122,-296.407 323.215,-304.277 326.575,-298.135"/>
</g>
<!-- zhdk domina&#45;ci&#45;executor\nas&#45;domina&#45;setup -->
<g id="node29" class="node"><title>zhdk domina&#45;ci&#45;executor\nas&#45;domina&#45;setup</title>
<ellipse fill="none" stroke="black" cx="483" cy="-280" rx="110.311" ry="29.3315"/>
<text text-anchor="middle" x="483" y="-282.8" font-family="Times,serif" font-size="14.00">zhdk domina&#45;ci&#45;executor</text>
<text text-anchor="middle" x="483" y="-266" font-family="Times,serif" font-size="14.00">as&#45;domina&#45;setup</text>
</g>
<!-- zhdk domina&#45;ci&#45;executor\nsetup&#45;&gt;zhdk domina&#45;ci&#45;executor\nas&#45;domina&#45;setup -->
<g id="edge31" class="edge"><title>zhdk domina&#45;ci&#45;executor\nsetup&#45;&gt;zhdk domina&#45;ci&#45;executor\nas&#45;domina&#45;setup</title>
<path fill="none" stroke="black" d="M483,-358.315C483,-346.531 483,-332.7 483,-320.019"/>
<polygon fill="black" stroke="black" points="486.5,-319.708 483,-309.708 479.5,-319.708 486.5,-319.708"/>
</g>
<!-- zhdk ssh add&#45;keys -->
<g id="node25" class="node"><title>zhdk ssh add&#45;keys</title>
<ellipse fill="none" stroke="black" cx="1222" cy="-280" rx="81.2634" ry="18"/>
<text text-anchor="middle" x="1222" y="-274.4" font-family="Times,serif" font-size="14.00">zhdk ssh add&#45;keys</text>
</g>
<!-- zhdk complete&#45;setup&#45;as&#45;user&#45;&gt;zhdk ssh add&#45;keys -->
<g id="edge23" class="edge"><title>zhdk complete&#45;setup&#45;as&#45;user&#45;&gt;zhdk ssh add&#45;keys</title>
<path fill="none" stroke="black" d="M1067.59,-370.438C1099.34,-352.05 1150.66,-322.323 1185.34,-302.238"/>
<polygon fill="black" stroke="black" points="1187.31,-305.14 1194.21,-297.099 1183.8,-299.083 1187.31,-305.14"/>
</g>
<!-- ci chromedriver\ninstall -->
<g id="node26" class="node"><title>ci chromedriver\ninstall</title>
<ellipse fill="none" stroke="black" cx="1396" cy="-280" rx="73.8819" ry="29.3315"/>
<text text-anchor="middle" x="1396" y="-282.8" font-family="Times,serif" font-size="14.00">ci chromedriver</text>
<text text-anchor="middle" x="1396" y="-266" font-family="Times,serif" font-size="14.00">install</text>
</g>
<!-- zhdk complete&#45;setup&#45;as&#45;user&#45;&gt;ci chromedriver\ninstall -->
<g id="edge24" class="edge"><title>zhdk complete&#45;setup&#45;as&#45;user&#45;&gt;ci chromedriver\ninstall</title>
<path fill="none" stroke="black" d="M1102.49,-372.658C1176.83,-355.743 1292.36,-329.033 1312,-322 1322.63,-318.191 1333.7,-313.422 1344.17,-308.497"/>
<polygon fill="black" stroke="black" points="1345.7,-311.643 1353.19,-304.149 1342.66,-305.337 1345.7,-311.643"/>
</g>
<!-- zhdk complete&#45;setup&#45;as&#45;user&#45;&gt;zhdk ci ruby\ninstall -->
<g id="edge25" class="edge"><title>zhdk complete&#45;setup&#45;as&#45;user&#45;&gt;zhdk ci ruby\ninstall</title>
<path fill="none" stroke="black" d="M990.16,-371.414C954.533,-359.434 905.438,-341.647 864,-322 855.682,-318.056 847.049,-313.454 838.803,-308.786"/>
<polygon fill="black" stroke="black" points="840.451,-305.696 830.042,-303.723 836.949,-311.757 840.451,-305.696"/>
</g>
<!-- ci phantomjs\ninstall -->
<g id="node27" class="node"><title>ci phantomjs\ninstall</title>
<ellipse fill="none" stroke="black" cx="935" cy="-280" rx="62.269" ry="29.3315"/>
<text text-anchor="middle" x="935" y="-282.8" font-family="Times,serif" font-size="14.00">ci phantomjs</text>
<text text-anchor="middle" x="935" y="-266" font-family="Times,serif" font-size="14.00">install</text>
</g>
<!-- zhdk complete&#45;setup&#45;as&#45;user&#45;&gt;ci phantomjs\ninstall -->
<g id="edge26" class="edge"><title>zhdk complete&#45;setup&#45;as&#45;user&#45;&gt;ci phantomjs\ninstall</title>
<path fill="none" stroke="black" d="M1022.29,-369.969C1007.59,-354.986 985.766,-332.742 967.618,-314.245"/>
<polygon fill="black" stroke="black" points="970.112,-311.789 960.61,-307.102 965.115,-316.692 970.112,-311.789"/>
</g>
<!-- ci tightvnc\nuser setup -->
<g id="node28" class="node"><title>ci tightvnc\nuser setup</title>
<ellipse fill="none" stroke="black" cx="1069" cy="-280" rx="53.0661" ry="29.3315"/>
<text text-anchor="middle" x="1069" y="-282.8" font-family="Times,serif" font-size="14.00">ci tightvnc</text>
<text text-anchor="middle" x="1069" y="-266" font-family="Times,serif" font-size="14.00">user setup</text>
</g>
<!-- zhdk complete&#45;setup&#45;as&#45;user&#45;&gt;ci tightvnc\nuser setup -->
<g id="edge27" class="edge"><title>zhdk complete&#45;setup&#45;as&#45;user&#45;&gt;ci tightvnc\nuser setup</title>
<path fill="none" stroke="black" d="M1043.82,-369.969C1047.7,-356.271 1053.29,-336.504 1058.22,-319.079"/>
<polygon fill="black" stroke="black" points="1061.68,-319.729 1061.03,-309.154 1054.94,-317.823 1061.68,-319.729"/>
</g>
<!-- zhdk ssh add&#45;keys&#45;&gt;ssh download\nand add to\nauthorized\nkeys -->
<g id="edge32" class="edge"><title>zhdk ssh add&#45;keys&#45;&gt;ssh download\nand add to\nauthorized\nkeys</title>
<path fill="none" stroke="black" d="M1254.5,-263.362C1271.71,-255.338 1293.3,-245.667 1313,-238 1360.54,-219.496 1376.34,-224.769 1422,-202 1428.19,-198.912 1434.45,-195.364 1440.58,-191.603"/>
<polygon fill="black" stroke="black" points="1442.88,-194.289 1449.44,-185.97 1439.12,-188.383 1442.88,-194.289"/>
</g>
<!-- setup scripts -->
<g id="node32" class="node"><title>setup scripts</title>
<ellipse fill="none" stroke="black" cx="1640" cy="-149" rx="59.0716" ry="18"/>
<text text-anchor="middle" x="1640" y="-143.4" font-family="Times,serif" font-size="14.00">setup scripts</text>
</g>
<!-- zhdk ssh add&#45;keys&#45;&gt;setup scripts -->
<g id="edge33" class="edge"><title>zhdk ssh add&#45;keys&#45;&gt;setup scripts</title>
<path fill="none" stroke="black" d="M1251.52,-263.113C1268.94,-254.4 1291.69,-244.15 1313,-238 1424.24,-205.896 1464.01,-246.256 1571,-202 1587.37,-195.227 1603.33,-183.633 1615.76,-173.109"/>
<polygon fill="black" stroke="black" points="1618.19,-175.636 1623.4,-166.409 1613.57,-170.376 1618.19,-175.636"/>
</g>
<!-- ci domina&#45;ci&#45;executor\ninstall -->
<g id="node30" class="node"><title>ci domina&#45;ci&#45;executor\ninstall</title>
<ellipse fill="none" stroke="black" cx="301" cy="-149" rx="98.1629" ry="29.3315"/>
<text text-anchor="middle" x="301" y="-151.8" font-family="Times,serif" font-size="14.00">ci domina&#45;ci&#45;executor</text>
<text text-anchor="middle" x="301" y="-135" font-family="Times,serif" font-size="14.00">install</text>
</g>
<!-- zhdk domina&#45;ci&#45;executor\nas&#45;domina&#45;setup&#45;&gt;ci domina&#45;ci&#45;executor\ninstall -->
<g id="edge28" class="edge"><title>zhdk domina&#45;ci&#45;executor\nas&#45;domina&#45;setup&#45;&gt;ci domina&#45;ci&#45;executor\ninstall</title>
<path fill="none" stroke="black" d="M445.289,-252.271C416.548,-231.899 376.855,-203.766 346.375,-182.162"/>
<polygon fill="black" stroke="black" points="348.222,-179.18 338.039,-176.253 344.174,-184.891 348.222,-179.18"/>
</g>
<!-- jvm leiningen\ninstall -->
<g id="node31" class="node"><title>jvm leiningen\ninstall</title>
<ellipse fill="none" stroke="black" cx="483" cy="-149" rx="66.0402" ry="29.3315"/>
<text text-anchor="middle" x="483" y="-151.8" font-family="Times,serif" font-size="14.00">jvm leiningen</text>
<text text-anchor="middle" x="483" y="-135" font-family="Times,serif" font-size="14.00">install</text>
</g>
<!-- zhdk domina&#45;ci&#45;executor\nas&#45;domina&#45;setup&#45;&gt;jvm leiningen\ninstall -->
<g id="edge29" class="edge"><title>zhdk domina&#45;ci&#45;executor\nas&#45;domina&#45;setup&#45;&gt;jvm leiningen\ninstall</title>
<path fill="none" stroke="black" d="M483,-250.371C483,-232.25 483,-208.591 483,-188.794"/>
<polygon fill="black" stroke="black" points="486.5,-188.549 483,-178.549 479.5,-188.549 486.5,-188.549"/>
</g>
</g>
</svg>
